<?xml version="1.0" standalone="no"?>
<!DOCTYPE svg PUBLIC "-//W3C//DTD SVG 1.1//EN" "http://www.w3.org/Graphics/SVG/1.1/DTD/svg11.dtd" >
<svg>
<metadata>
Created by FontForge 20090914 at Sun May 17 21:30:59 2020
 By www-data
&#194;&#169; 1992, Tilde Ltd. AG Fonts Collection. Created by Andrejs Grinbergs.
</metadata>
<defs>
<font id="AGHelveticaBold" horiz-adv-x="2277" >
  <font-face 
    font-family="AG_Helvetica"
    font-weight="700"
    font-stretch="normal"
    units-per-em="4096"
    panose-1="2 11 -30 0 0 0 0 0 0 0"
    ascent="3276"
    descent="-820"
    x-height="2179"
    cap-height="2941"
    bbox="-135 -889.003 4108 3748"
    underline-thickness="20"
    underline-position="-123"
    unicode-range="U+0020-U+2122"
  />
<missing-glyph horiz-adv-x="3072" 
d="M512 0v2560h2048v-2560h-2048zM2494 66v2428h-1916v-2428h1916z" />
    <glyph glyph-name=".notdef" horiz-adv-x="3072" 
d="M512 0v2560h2048v-2560h-2048zM2494 66v2428h-1916v-2428h1916z" />
    <glyph glyph-name="space" unicode=" " horiz-adv-x="2048" 
 />
    <glyph glyph-name="exclam" unicode="!" horiz-adv-x="1364" 
d="M983 578v-578h-598v578h598zM999 2191l-163 -1376h-304l-163 1376v750h630v-750z" />
    <glyph glyph-name="quotedbl" unicode="&#x22;" horiz-adv-x="1942" 
d="M1139 1831v1110h401v-1110h-401zM401 1831v1110h402v-1110h-402z" />
    <glyph glyph-name="numbersign" unicode="#" 
d="M2085 1184l-49 -369h-398l-114 -815h-385l114 815h-397l-115 -815h-385l115 815h-397l49 369h397l70 491h-397l49 369h397l115 815h385l-115 -815h397l115 815h385l-115 -815h398l-50 -369h-397l-69 -491h397zM1372 1675h-397l-70 -491h398z" />
    <glyph glyph-name="dollar" unicode="$" 
d="M2097 2052h-527.994c-10.667 170.667 -44.834 283.667 -102.501 339s-135.5 83 -233.5 83v-766c348 -111.333 576 -219.333 684 -324c150 -141.333 225 -332.333 225 -573c0 -102 -16.333 -202 -49 -300s-84.834 -189.333 -156.501 -274s-166.334 -154.667 -284.001 -210
s-257.5 -87.666 -419.5 -96.999v-401h-189v401c-167.333 14 -308.833 42.667 -424.5 86s-210 103.333 -283 180s-126.833 171.167 -161.5 283.5s-52 246.166 -52 401.499h536c9.33301 -107.333 24.333 -194.166 45 -260.499s57.667 -121 111 -164
s129.666 -73.5 228.999 -91.5v860c-124.667 34 -233.5 69 -326.5 105s-180.333 84.5 -262 145.5s-147.334 139.667 -197.001 236s-74.5 211.166 -74.5 344.499c0 238.667 74.333 439.334 223 602c148.667 162.667 361 246 637 250v266h189v-266
c224.667 -23.333 419.167 -92.166 583.5 -206.5c164.333 -114.333 257.833 -330.833 280.499 -649.5zM1044.01 1765v709c-110.667 -5.33301 -195.667 -40.666 -255 -106c-59.333 -65.333 -89 -136.666 -89 -214c0 -206 114.667 -335.667 344 -389zM1233.01 1155v-789.999
c56 4 110.833 18.167 164.5 42.5s99.667 66.166 138 125.499s57.5 137 57.5 233c0 193.333 -120 323 -360 389z" />
    <glyph glyph-name="percent" unicode="%" horiz-adv-x="3641" 
d="M2036 696c0 134.667 33.333 259.169 100 373.502s157.5 205 272.5 272s239.167 100.5 372.5 100.5c132.667 0 256.334 -33.5 371 -100.5c114.667 -67 205.834 -157.833 273.5 -272.5c67.667 -114.667 101.5 -239 101.5 -373c0 -134.667 -33.667 -259.167 -101 -373.5
s-158.666 -204.833 -274 -271.5c-115.333 -66.667 -239 -100 -371 -100c-134.667 0 -259.167 33.167 -373.5 99.5s-204.833 156.666 -271.5 270.999s-100 239.166 -100 374.499zM2458 696.002c0 -89.333 31.833 -165.501 95.5 -228.501s139.5 -94.5 227.5 -94.5
s164 31.333 228 94s96 139 96 229c0 90.667 -32 167.334 -96 230.001s-140 94 -228 94s-163.833 -31.5 -227.5 -94.5s-95.5 -139.5 -95.5 -229.5zM115 2163c0 102 19.332 198.168 57.999 288.501s92.334 169.833 161.001 238.5s148.667 122.167 240 160.5
s186.666 57.5 285.999 57.5c132.667 0 256.5 -33.667 371.5 -101s206.167 -158 273.5 -272s101 -238 101 -372c0 -135.333 -33.667 -260 -101 -374s-158.666 -204.5 -273.999 -271.5s-239 -100.5 -371 -100.5c-134.667 0 -259.167 33.167 -373.5 99.5
s-204.833 156.666 -271.5 270.999s-100 239.5 -100 375.5zM536.999 2163c0 -88.667 31.833 -164.832 95.5 -228.499s139.5 -95.5 227.5 -95.5s164 31.667 228 95s96 139.666 96 228.999c0 90 -32 166.333 -96 229s-140 94 -228 94s-163.833 -31.5 -227.5 -94.5
s-95.5 -139.167 -95.5 -228.5zM2777 2908l-1630 -2986h-303l1630 2986h303z" />
    <glyph glyph-name="ampersand" unicode="&#x26;" horiz-adv-x="2957" 
d="M1589 2265c0 79.333 -22.499 139.501 -67.499 180.501s-104.5 61.5 -178.5 61.5c-66.667 0 -122.834 -21 -168.501 -63s-68.5 -100.333 -68.5 -175c0 -91.333 71 -214 213 -368c180 113.333 270 234.666 270 363.999zM2339 643.001l532 -643h-692l-201 250
c-102.667 -102.667 -217.667 -183 -345 -241s-292 -87 -494 -87c-135.333 0 -260 22.333 -374 67s-211.5 106.167 -292.5 184.5s-143.167 168 -186.5 269s-65 206.167 -65 315.5c0 105.333 14.333 203.833 43 295.5s84.667 185 168 280s201.333 188.5 354 280.5l62 37
c-177.333 200.667 -266 405.334 -266 614.001c0 130.667 33 247.5 99 350.5s158.333 183 277 240s254 85.5 406 85.5c114.667 0 227.5 -25 338.5 -75s202.5 -126.5 274.5 -229.5s108 -228.167 108 -375.5c0 -278 -162.667 -511.333 -488 -700l418 -517
c83.333 129.333 134 290.666 152 483.999h508c-12 -129.333 -31.833 -244.5 -59.5 -345.5s-63.167 -193 -106.5 -276s-100 -170.833 -170 -263.5zM1683 610.001l-540 676.001c-93.333 -67.333 -163 -122 -209 -164s-80.667 -88.333 -104 -139s-35 -113.334 -35 -188.001
c0 -48 13.667 -102.333 41 -163s73.5 -113.5 138.5 -158.5s149.833 -67.5 254.5 -67.5c154.667 0 306 68 454 204z" />
    <glyph glyph-name="quotesingle" unicode="'" horiz-adv-x="975" 
d="M287 1831v1110h401v-1110h-401z" />
    <glyph glyph-name="parenleft" unicode="(" horiz-adv-x="1364" 
d="M1286 -852l-422 -0.00195312c-216 292.667 -390.167 594.834 -522.5 906.501s-198.5 649.834 -198.5 1014.5c0 193.333 18.833 379 56.5 557s89.5 347.333 155.5 508s141.5 311.834 226.5 453.5c85 141.667 179.167 281.167 282.5 418.5h422
c-87.333 -150 -163 -292.333 -227 -427s-120.5 -278.667 -169.5 -432s-87.333 -320.166 -115 -500.499s-41.5 -372.833 -41.5 -577.5c0 -266 24 -511.333 72 -736s110.667 -426.834 188 -606.501s175 -372.5 293 -578.5z" />
    <glyph glyph-name="parenright" unicode=")" horiz-adv-x="1364" 
d="M78 3006l422 -0.00195312c216 -290.667 390.167 -592.334 522.5 -905c132.333 -312.667 198.5 -651.334 198.5 -1016c0 -192.667 -19 -378.667 -57 -558s-90 -348.666 -156 -507.999s-142.333 -311.5 -229 -456.5s-179.667 -283.167 -279 -414.5h-422
c180 306.667 317.167 608.334 411.5 905.001s141.5 640.667 141.5 1032c0 266 -24 511.333 -72 736s-110.667 426.834 -188 606.501s-175 372.5 -293 578.5z" />
    <glyph glyph-name="asterisk" unicode="*" horiz-adv-x="1593" 
d="M1384 2593l99 -299l-430 -131l282 -398l-258 -180l-278 373l-283 -373l-258 180l279 398l-426 131l94 299l418 -139v487h348v-487z" />
    <glyph glyph-name="plus" unicode="+" horiz-adv-x="2392" 
d="M967 1266v807h458v-807h803v-459h-803v-807h-458v807h-803v459h803z" />
    <glyph glyph-name="comma" unicode="," horiz-adv-x="1139" 
d="M877 598l-0.00195312 -516c0 -234.667 -53.333 -410.167 -160 -526.5s-257 -197.5 -451 -243.5h-4v217c66 22.667 121.833 48.667 167.5 78s84.834 75.333 117.501 138s52.334 147.667 59.001 255h-344v598h615z" />
    <glyph glyph-name="hyphen" unicode="-" horiz-adv-x="1364" 
d="M1253 1413v-532h-1142v532h1142z" />
    <glyph glyph-name="period" unicode="." horiz-adv-x="1139" 
d="M877 598v-598h-615v598h615z" />
    <glyph glyph-name="slash" unicode="/" horiz-adv-x="1139" 
d="M1274 3019l-930 -3097h-479l930 3097h479z" />
    <glyph glyph-name="zero" unicode="0" 
d="M131 1417c0 338 36.333 617.666 109 838.999s183.5 385.333 332.5 492s337.833 160 566.5 160c228 0 416.5 -53.333 565.5 -160s259.833 -270.667 332.5 -492s109 -501 109 -839c0 -509.333 -82.167 -885.833 -246.5 -1129.5s-417.833 -365.5 -760.5 -365.5
c-228.667 0 -417.5 53.833 -566.5 161.5s-259.833 272.334 -332.5 494.001s-109 501.5 -109 839.5zM721 1417c0 -189.333 6.66504 -349.332 19.998 -479.999s35.833 -237.167 67.5 -319.5s74 -142.333 127 -180s120.833 -56.5 203.5 -56.5c108 0 192.333 34 253 102
s103.167 176.667 127.5 326s36.5 352 36.5 608c0 199.333 -6.33301 361.666 -19 486.999s-34.667 228.666 -66 309.999s-73.666 140.833 -126.999 178.5s-121.666 56.5 -204.999 56.5c-110 0 -195 -33.667 -255 -101s-102.167 -175.166 -126.5 -323.499
s-36.5 -350.833 -36.5 -607.5z" />
    <glyph glyph-name="one" unicode="1" 
d="M283 2003v401h82c249.333 0 428.5 50.333 537.5 151s167.167 218.334 174.5 353h471v-2908h-573v2003h-692z" />
    <glyph glyph-name="two" unicode="2" 
d="M696 1880l-557.006 0.00195312c0 286.667 56 506.167 168 658.5s238.333 252 379 299s275.334 70.5 404.001 70.5c141.333 0 272 -20 392 -60s225.833 -99.167 317.5 -177.5s162.834 -174.666 213.501 -289c50.667 -114.333 76 -244.5 76 -390.5
c0 -154.667 -28.833 -290.834 -86.5 -408.501s-129.334 -216.834 -215.001 -297.501s-187.167 -161 -304.5 -241l-284 -199c-56.667 -40 -110.667 -80 -162 -120s-94.166 -77.667 -128.499 -113s-60.166 -70 -77.499 -104h1262v-508h-1987
c9.33301 152.667 27.333 282.167 54 388.5s87.834 225 183.501 356s241.834 267.833 438.501 410.5c223.333 163.333 377.833 280.5 463.5 351.5s152.167 146.333 199.5 226s71 172.5 71 278.5c0 108 -34.5 204 -103.5 288s-168.5 126 -298.5 126
c-122.667 0 -214.5 -28.167 -275.5 -84.5s-99.667 -122.833 -116 -199.5s-25.166 -163.667 -26.499 -261z" />
    <glyph glyph-name="three" unicode="3" 
d="M872 1274v409h91c133.333 0 247.833 24.5 343.5 73.5s143.5 155.833 143.5 320.5c0 49.333 -9.66699 102 -29 158s-56.166 105.667 -110.499 149s-129.5 65 -225.5 65c-262 0 -393 -158.333 -393 -475h-532c0 184.667 35.167 347.167 105.5 487.5
s177.666 249.833 321.999 328.5s322.5 118 534.5 118c106 0 210.833 -14.167 314.5 -42.5s200.167 -74.333 289.5 -138s161.166 -148 215.499 -253s81.5 -230.833 81.5 -377.5c0 -135.333 -34.5 -250.666 -103.5 -345.999s-150.5 -164.333 -244.5 -207v-8
c53.333 -16 113.166 -46.667 179.499 -92s126.166 -116.833 179.499 -214.5s80 -220.834 80 -369.501c0 -180 -41.833 -341.5 -125.5 -484.5s-201.167 -254.333 -352.5 -334s-322.666 -119.5 -513.999 -119.5c-96 0 -197 9.83301 -303 29.5s-213.833 62 -323.5 127
s-201.167 164.167 -274.5 297.5s-110 305.666 -110 516.999h561l-4 -4c0 -124.667 29 -240.5 87 -347.5s171 -160.5 339 -160.5c122 0 224.167 41.5 306.5 124.5s123.5 201.167 123.5 354.5c0 122.667 -33.167 214.334 -99.5 275.001s-145.166 99 -236.499 115
s-196.666 24 -315.999 24z" />
    <glyph glyph-name="four" unicode="4" 
d="M532 1090h724.999c0 234.667 0.833008 418.667 2.5 552s3.83398 275 6.50098 425s4 240.667 4 272h-8zM2154 1090v-447h-323v-643h-574v643h-1146v496l1069 1769h651v-1818h323z" />
    <glyph glyph-name="five" unicode="5" 
d="M815 2376l-102.001 -631.001c72 50.667 145 90 219 118s174.333 42 301 42c139.333 0 276.833 -33.667 412.5 -101s247.667 -171.5 336 -312.5s132.5 -315.833 132.5 -524.5c0 -157.333 -31.5 -315.333 -94.5 -474s-173.333 -293.5 -331 -404.5
s-368.167 -166.5 -631.5 -166.5c-157.333 0 -306.5 31.667 -447.5 95s-257.167 159.833 -348.5 289.5s-141.333 286.834 -150 471.501h573c28 -264.667 163.333 -397 406 -397c134.667 0 240.667 51 318 153s116 232.667 116 392c0 142.667 -35.667 265 -107 367
s-177.666 153 -318.999 153c-182 0 -310.333 -69.667 -385 -209l-512 25l200 1597h1598v-483h-1184z" />
    <glyph glyph-name="six" unicode="6" 
d="M2073 2171l-570.001 0.000976562c-8.66699 85.333 -40.834 153 -96.501 203s-135.5 75 -239.5 75c-289.333 0 -449 -267.333 -479 -802l8 -9c117.333 161.333 299 242 545 242c190 0 352.333 -43 487 -129s235.334 -198 302.001 -336s100 -282 100 -432
c0 -208.667 -40 -393.334 -120 -554.001s-192.167 -285.334 -336.5 -374.001s-308.833 -133 -493.5 -133c-275.333 0 -491 67.667 -647 203s-262.667 310.333 -320 525s-86 459.334 -86 734.001c0 176.667 11 347.667 33 513s68.833 325.333 140.5 480
s181.834 281.834 330.501 381.5c148.667 99.667 341 149.5 577 149.5c48.667 0 111.334 -6.33301 188.001 -19s152.667 -33.167 228 -61.5s134.666 -64.166 177.999 -107.5c84 -82 143.667 -157.167 179 -225.5s66 -176.166 92 -323.5zM1556 934.001
c0 167.333 -42.332 290.333 -126.999 369s-181.334 118 -290.001 118c-121.333 0 -224.833 -41 -310.5 -123s-128.5 -207.333 -128.5 -376c0 -104.667 18.833 -198 56.5 -280s91 -146 160 -192s148.5 -69 238.5 -69c114.667 0 210.167 46 286.5 138s114.5 230.333 114.5 415
z" />
    <glyph glyph-name="seven" unicode="7" 
d="M2163 2859l0.000976562 -441.999c-96 -104 -197.333 -227.333 -304 -370s-215 -315.5 -325 -518.5s-205.333 -435 -286 -696s-129.334 -538.5 -146.001 -832.5h-590c18 351.333 90.167 687 216.5 1007s264.5 591.667 414.5 815s285 399.666 405 528.999h-1446l13 508
h2048z" />
    <glyph glyph-name="eight" unicode="8" 
d="M1143 1729c110.667 0 197.665 33.5 260.998 100.5s95 153.5 95 259.5c0 108 -32.167 195 -96.5 261s-144.166 99 -239.499 99c-125.333 0 -222.166 -32.5 -290.499 -97.5s-102.5 -152.5 -102.5 -262.5c0 -94 33.333 -177.5 100 -250.5s157.667 -109.5 273 -109.5z
M2146 864c0 -140 -32.833 -282.333 -98.5 -427s-174 -266.667 -325 -366s-345.5 -149 -583.5 -149c-177.333 0 -331.666 26.333 -462.999 79s-236.666 122.167 -315.999 208.5s-137.333 181 -174 284s-55 207.5 -55 313.5c0 82.667 7.66699 164.667 23 246
s55.666 168 120.999 260s164.666 169 297.999 231c-234.667 118 -352 308 -352 570c0 160 39.5 300.333 118.5 421s187.5 213 325.5 277s291.667 96 461 96c288.667 0 514.5 -73.167 677.5 -219.5s244.5 -325.833 244.5 -538.5c0 -272 -112 -467 -336 -585
c147.333 -73.333 256.5 -163.5 327.5 -270.5s106.5 -250.5 106.5 -430.5zM1556 840c0 121.333 -34.168 227.333 -102.501 318s-176.166 136 -323.499 136c-113.333 0 -209.833 -38 -289.5 -114s-119.5 -188 -119.5 -336c0 -140.667 37.833 -253 113.5 -337
s178.5 -126 308.5 -126c136.667 0 239.667 47 309 141s104 200 104 318z" />
    <glyph glyph-name="nine" unicode="9" 
d="M696 1946c0 -355.333 143.333 -533 430 -533c113.333 0 212 41.333 296 124s126 204 126 364c0 169.333 -36.833 301 -110.5 395s-182.834 141 -327.501 141c-103.333 0 -198.166 -36 -284.499 -108s-129.5 -199.667 -129.5 -383zM180 672l570.001 0.000976562v-4
c30.667 -191.333 142.334 -287 335.001 -287c85.333 0 164 26.5 236 79.5s130.5 140 175.5 261s67.833 277.833 68.5 470.5l-9 8c-109.333 -164 -293.333 -246 -552 -246c-179.333 0 -336 41.167 -470 123.5s-236 193 -306 332s-105 290.5 -105 454.5
c0 229.333 42.167 422.5 126.5 579.5s201.166 273.667 350.499 350s320.666 114.5 513.999 114.5c234.667 0 423.5 -53.833 566.5 -161.5s247 -242.167 312 -403.5s105.5 -317 121.5 -467s24 -304.333 24 -463c0 -353.333 -49.5 -641.833 -148.5 -865.5
s-228 -383.834 -387 -480.501s-332.833 -145 -521.5 -145c-162.667 0 -309.667 30.333 -441 91s-236.833 147.667 -316.5 261s-127.5 246 -143.5 398z" />
    <glyph glyph-name="colon" unicode=":" horiz-adv-x="1364" 
d="M991 598v-598h-614v598h614zM991 2097v-598h-614v598h614z" />
    <glyph glyph-name="semicolon" unicode=";" horiz-adv-x="1364" 
d="M991 598v-515.999c0 -235.333 -53.167 -411 -159.5 -527s-256.5 -197 -450.5 -243h-4v217c102 35.333 182.667 84.666 242 147.999s93.333 171 102 323h-344v598h614zM991 2097v-598h-614v598h614z" />
    <glyph glyph-name="less" unicode="&#x3c;" horiz-adv-x="2392" 
d="M2236 410v-443l-2080 885v369l2080 884v-442l-1486 -627z" />
    <glyph glyph-name="equal" unicode="=" horiz-adv-x="2392" 
d="M2228 1716v-459h-2064v459h2064zM2228 815v-459h-2064v459h2064z" />
    <glyph glyph-name="greater" unicode="&#x3e;" horiz-adv-x="2392" 
d="M156 410l1486 626l-1486 627v442l2080 -884v-369l-2080 -885v443z" />
    <glyph glyph-name="question" unicode="?" horiz-adv-x="2503" 
d="M1532 852l-541 0.00195312c0 142 9 256.167 27 342.5s56.833 167.666 116.5 243.999s151.167 157.833 274.5 244.5c169.333 117.333 254 252.666 254 405.999c0 144.667 -39.667 248.334 -119 311c-79.333 62.667 -172 94 -278 94
c-162.667 0 -273.334 -44.333 -332.001 -133s-95.667 -201.334 -111 -338v-4h-577c0 222.667 48.333 406 145 550s219.834 248.167 369.501 312.5s305.834 96.5 468.501 96.5c128.667 0 271.667 -20.167 429 -60.5s299.833 -125.333 427.5 -255s191.5 -315.5 191.5 -557.5
c0 -106.667 -18.667 -202.334 -56 -287.001s-91.5 -163.167 -162.5 -235.5s-163.167 -149.166 -276.5 -230.499c-66.667 -48.667 -116.834 -91.667 -150.501 -129s-58.667 -84.5 -75 -141.5s-24.5 -133.5 -24.5 -229.5zM1573 578.002v-578h-598v578h598z" />
    <glyph glyph-name="at" unicode="@" horiz-adv-x="3994" 
d="M2380 1540c0 101.333 -30.501 184.665 -91.501 249.998s-139.833 98 -236.5 98c-89.333 0 -170.833 -27.667 -244.5 -83s-131.167 -126.166 -172.5 -212.499s-62 -172.166 -62 -257.499c0 -107.333 28.667 -194.833 86 -262.5s135 -101.5 233 -101.5
c92.667 0 176.334 28 251.001 84s132.834 128.5 174.5 217.5c41.667 89 62.5 178.167 62.5 267.5zM2503 2019l53 217.002h360l-237 -1044c-19.333 -72.667 -29 -130 -29 -172c0 -57.333 20.667 -86 62 -86c74 0 146.667 29.667 218 89s129.833 144 175.5 254
s68.5 236 68.5 378c0 215.333 -48.5 401.333 -145.5 558s-230.667 275.5 -401 356.5s-360.833 121.5 -571.5 121.5c-228.667 0 -431.834 -53.5 -609.501 -160.5s-315 -254 -412 -441s-145.5 -396.167 -145.5 -627.5c0 -238 52.5 -449.167 157.5 -633.5
s250.5 -326.833 436.5 -427.5s396.333 -151 631 -151c165.333 0 322.166 29.5 470.5 88.5c148.333 59 278.166 140.167 389.5 243.5h364c-94.667 -140 -206.667 -259.333 -336 -358s-271.333 -173.667 -426 -225s-317 -77 -487 -77
c-292.667 0 -561.834 67.167 -807.501 201.5s-440.167 319.666 -583.5 555.999s-215 499.833 -215 790.5c0 214 41 415.833 123 605.5s196.333 355.5 343 497.5s315.834 251.833 507.501 329.5s394.167 116.5 607.5 116.5c186.667 0 366.834 -30.167 540.5 -90.5
c173.667 -60.333 328.334 -146.666 464 -259c135.667 -112.333 242.5 -246.666 320.5 -403c78 -156.333 117 -327.5 117 -513.5c0 -206 -38.167 -385.833 -114.5 -539.5s-171.5 -278 -285.5 -373s-230 -165.333 -348 -211s-216.667 -68.5 -296 -68.5
c-62.667 0 -116.334 18.667 -161 56c-44.667 37.333 -69 91 -73 161l-8 4c-56.667 -63.333 -123.667 -116 -201 -158s-153.666 -63 -228.999 -63c-117.333 0 -226.5 32.667 -327.5 98s-181.667 153.166 -242 263.499s-90.5 227.5 -90.5 351.5
c0 172.667 36.833 336.667 110.5 492s177.5 280.833 311.5 376.5s285.667 143.5 455 143.5c220.667 0 386 -89 496 -267z" />
    <glyph glyph-name="A" unicode="A" horiz-adv-x="2957" 
d="M934 606l-205 -606h-647l1048 2941h709l1036 -2941h-667l-189 606h-1085zM1475 2277l-377 -1163h749l-364 1163h-8z" />
    <glyph glyph-name="B" unicode="B" horiz-adv-x="2957" 
d="M311 0l-0.000976562 2941h1430c222.667 0 401.667 -39.167 537.001 -117.5c135.333 -78.333 230.5 -174.5 285.5 -288.5s82.5 -230 82.5 -348c0 -183.333 -34.667 -316.666 -104 -399.999s-154.666 -150.666 -256 -201.999c302.667 -113.333 454 -351 454 -713
c0 -116 -22.333 -226.5 -67 -331.5s-107 -196.5 -187 -274.5c-66 -63.333 -131.667 -113.166 -197 -149.499s-155.666 -64.833 -271 -85.5c-115.333 -20.667 -269.333 -31 -462 -31h-1245zM900.999 1294v-786h754c314 0 471 143.333 471 430c0 120 -42.667 209.333 -128 268
s-190.333 88 -315 88h-782zM900.999 2433l-0.000976562 -643.001h721c129.333 0 234 27 314 81s120 136.333 120 247c0 114.667 -37.667 195.834 -113 243.501s-187.666 71.5 -336.999 71.5h-705z" />
    <glyph glyph-name="C" unicode="C" horiz-adv-x="2957" 
d="M2802 1978l-615.001 0.000976562c-38.667 142 -101.667 262.167 -189 360.5s-241.333 147.5 -462 147.5c-189.333 0 -358.166 -78.333 -506.499 -235s-222.5 -421 -222.5 -793c0 -184.667 25.5 -352.834 76.5 -504.501s131 -272.667 240 -363s246.5 -135.5 412.5 -135.5
c114 0 215.5 21 304.5 63s163.167 104.833 222.5 188.5s100.666 184.167 123.999 301.5h615c-42 -217.333 -117.167 -407.5 -225.5 -570.5s-251 -289.667 -428 -380s-385.167 -135.5 -624.5 -135.5c-263.333 0 -496.5 58.833 -699.5 176.5s-361.167 293 -474.5 526
s-170 513.5 -170 841.5c0 332 58.833 615 176.5 849s279 409.833 484 527.5s435.5 176.5 691.5 176.5c208.667 0 392.834 -32 552.501 -96s290.5 -147.833 392.5 -251.5s179.5 -215.667 232.5 -336s83.833 -239.5 92.5 -357.5z" />
    <glyph glyph-name="D" unicode="D" horiz-adv-x="2957" 
d="M311 0v2941h1299c234.667 0 431.5 -44 590.5 -132s282.167 -202 369.5 -342s148.5 -290 183.5 -450s52.5 -319 52.5 -477c0 -176.667 -19.333 -352.334 -58 -527.001s-104.5 -339.5 -197.5 -494.5s-219.667 -280.167 -380 -375.5s-355.5 -143 -585.5 -143h-1274z
M913 2433l0.000976562 -1925h598c156 0 284.333 46.5 385 139.5s173 214.5 217 364.5s66 311 66 483c0 264.667 -35.167 466.667 -105.5 606s-154.333 229.5 -252 270.5s-203.834 61.5 -318.501 61.5h-590z" />
    <glyph glyph-name="E" unicode="E" horiz-adv-x="2732" 
d="M2474 2941v-520h-1561v-619h1434v-520h-1434v-762h1631v-520h-2233v2941h2163z" />
    <glyph glyph-name="F" unicode="F" horiz-adv-x="2503" 
d="M926 1237v-1237h-615v2941h2093v-520h-1478v-664h1294v-520h-1294z" />
    <glyph glyph-name="G" unicode="G" horiz-adv-x="3187" 
d="M1692 1090v494.999h1228v-1585h-409l-62 369c-72.667 -85.333 -144.167 -158.5 -214.5 -219.5s-163.666 -114.167 -279.999 -159.5s-257.166 -68 -422.499 -68c-179.333 0 -350.333 32.333 -513 97s-307.334 162 -434.001 292s-225.834 291.667 -297.501 485
s-107.5 415.333 -107.5 666c0 278.667 52.667 536.334 158 773.001s266.166 426.5 482.499 569.5s482.166 214.5 797.499 214.5c216 0 404.333 -30.833 565 -92.5s292.834 -142.334 396.501 -242c103.667 -99.667 182.167 -206.5 235.5 -320.5s84.333 -226 93 -336h-614
c0 46 -25.833 108.167 -77.5 186.5s-126.167 147.333 -223.5 207s-211.333 89.5 -342 89.5c-154.667 0 -295.5 -37 -422.5 -111s-229 -190.667 -306 -350s-115.5 -358 -115.5 -596c0 -252 40.167 -453.333 120.5 -604s184.333 -256.334 312 -317.001
s268.834 -91 423.501 -91c70.667 0 152.167 15 244.5 45s184 93.333 275 190s155.5 234.334 193.5 413.001h-684z" />
    <glyph glyph-name="H" unicode="H" horiz-adv-x="2957" 
d="M2052 1319h-1147v-1319h-614v2941h614v-1114h1147v1114h614v-2941h-614v1319z" />
    <glyph glyph-name="I" unicode="I" horiz-adv-x="1139" 
d="M877 2941v-2941h-615v2941h615z" />
    <glyph glyph-name="J" unicode="J" 
d="M1982 2941l0.000976562 -2089c0 -204.667 -35 -376.334 -105 -515.001s-172.833 -241.834 -308.5 -309.501s-302.167 -101.5 -499.5 -101.5c-232 0 -416.333 33.5 -553 100.5s-234.834 155.333 -294.501 265s-96.5 226.167 -110.5 349.5s-21 279.666 -21 468.999h574
c0 -170 7.66699 -302.833 23 -398.5s48.833 -167.834 100.5 -216.501s130.5 -73 236.5 -73c144.667 0 238.167 36.667 280.5 110s63.5 180 63.5 320v2089h614z" />
    <glyph glyph-name="K" unicode="K" horiz-adv-x="2957" 
d="M971 995v-995h-615v2941h615v-1196l1122 1196h795l-1200 -1204l1269 -1737h-790l-910 1290z" />
    <glyph glyph-name="L" unicode="L" horiz-adv-x="2503" 
d="M926 2941v-2409h1462v-532h-2077v2941h615z" />
    <glyph glyph-name="M" unicode="M" horiz-adv-x="3412" 
d="M3133 2941v-2941h-573v2458h-8l-549 -2458h-602l-537 2458h-8v-2458h-573v2941h897l532 -2318h8l525 2318h888z" />
    <glyph glyph-name="N" unicode="N" horiz-adv-x="2957" 
d="M2105 893v2048h574v-2941h-615l-1200 2097h-8v-2097h-573v2941h647l1167 -2048h8z" />
    <glyph glyph-name="O" unicode="O" horiz-adv-x="3187" 
d="M180 1470c0 322 50.834 587.831 152.501 797.498s228.834 368.5 381.501 476.5s305 180.833 457 218.5s292.667 56.5 422 56.5c130.667 0 271.5 -18.833 422.5 -56.5s302.833 -110.167 455.5 -217.5s280 -266.166 382 -476.499s153 -476.5 153 -798.5
c0 -321.333 -51 -587.166 -153 -797.499s-229.833 -369.333 -383.5 -477s-306.5 -180.167 -458.5 -217.5s-291.333 -56 -418 -56c-126 0 -265.333 18.833 -418 56.5s-305.834 110.5 -459.501 218.5s-281.334 266.833 -383.001 476.5s-152.5 475.167 -152.5 796.5z
M795.001 1470c0 -194.667 24.498 -359.333 73.498 -494s113.167 -241 192.5 -319s165 -133.333 257 -166s183.667 -49 275 -49c92 0 183.833 16.167 275.5 48.5s177.334 87.666 257.001 165.999s144 184.833 193 319.5s73.5 299.334 73.5 494.001
c0 195.333 -24.5 360.5 -73.5 495.5s-113.167 241.5 -192.5 319.5s-165 133.167 -257 165.5s-184 48.5 -276 48.5c-91.333 0 -183.166 -16.333 -275.499 -49s-178 -87.834 -257 -165.5c-79 -77.667 -143 -184 -192 -319s-73.5 -300.167 -73.5 -495.5z" />
    <glyph glyph-name="P" unicode="P" horiz-adv-x="2732" 
d="M926 1061v-1061h-615v2941h1344c187.333 0 349.833 -38.167 487.5 -114.5s243 -185.666 316 -328c73 -142.333 109.5 -308.833 109.5 -499.5c0 -118 -26.333 -249 -79 -393s-149 -270.833 -289 -380.5s-330 -164.5 -570 -164.5h-704zM926 1569l568.999 -0.000976562
c196.667 0 322.334 46.333 377.001 139s82 199.334 82 320.001c0 142.667 -42.5 245.834 -127.5 309.5c-85 63.667 -222.833 95.5 -413.5 95.5h-487v-864z" />
    <glyph glyph-name="Q" unicode="Q" horiz-adv-x="3187" 
d="M1630 799l315.998 331.002l311 -290c90 166 135 376 135 630c0 195.333 -24.5 360.5 -73.5 495.5s-113.167 241.5 -192.5 319.5s-165 133.167 -257 165.5s-184 48.5 -276 48.5c-91.333 0 -183.166 -16.333 -275.499 -49s-178 -87.834 -257 -165.501s-143 -184 -192 -319
s-73.5 -300.167 -73.5 -495.5c0 -194.667 24.5 -359.334 73.5 -494.001s113.167 -241 192.5 -319s165 -133.333 257 -166s183.667 -49 275 -49c120.667 0 231.334 26 332.001 78zM3019 119.002l-323.999 -332.002l-348 332c-85.333 -50 -175 -89.833 -269 -119.5
s-181.667 -50 -263 -61s-155.333 -16.5 -222 -16.5c-126 0 -265.333 18.833 -418 56.5s-305.834 110.5 -459.501 218.5s-281.334 266.833 -383.001 476.5s-152.5 475.167 -152.5 796.5c0 322 50.833 587.833 152.5 797.5s228.834 368.5 381.501 476.5s305 180.833 457 218.5
s292.667 56.5 422 56.5c130.667 0 271.5 -18.833 422.5 -56.5s302.833 -110.167 455.5 -217.5s280 -266.166 382 -476.499s153 -476.5 153 -798.5c0 -228.667 -27 -429.667 -81 -603s-129.333 -321.666 -226 -444.999z" />
    <glyph glyph-name="R" unicode="R" horiz-adv-x="2957" 
d="M311 0v2941h1487c237.333 0 425.166 -47.5 563.499 -142.5s233.333 -206.167 285 -333.5s77.5 -246 77.5 -356c0 -164.667 -40.167 -310.5 -120.5 -437.5s-191.833 -214.5 -334.5 -262.5c92 -40 163.5 -82.667 214.5 -128s90.167 -115 117.5 -209s41 -230 41 -408
c0 -166.667 2 -284.167 6 -352.5s14.833 -120.333 32.5 -156s48.5 -61.5 92.5 -77.5v-78h-680c-43.333 146.667 -65 344.667 -65 594c0 151.333 -9.16699 264 -27.5 338s-61.166 129 -128.499 165s-175.333 54 -324 54h-635v-1151h-602zM913 1647h721
c162.667 0 282.5 31.167 359.5 93.5s115.5 164.833 115.5 307.5c0 102 -31.333 191.667 -94 269s-174.667 116 -336 116h-766v-786z" />
    <glyph glyph-name="S" unicode="S" horiz-adv-x="2732" 
d="M160 905l589.998 0.000976562c2.66699 -119.333 48.334 -228.333 137.001 -327s250.334 -148 485.001 -148c410 0 615 127 615 381c0 104 -42 179.667 -126 227s-219.667 93.333 -407 138l-315 73c-211.333 49.333 -378 98.666 -500 147.999
s-224.833 130.833 -308.5 244.5s-125.5 271.167 -125.5 472.5c0 136 31.167 272 93.5 408s177.666 252.833 345.999 350.5s398.5 146.5 690.5 146.5c213.333 0 394.833 -30.333 544.5 -91s268.334 -139.667 356.001 -237s150.334 -200.333 188 -309
c37.667 -108.667 57.167 -213.334 58.5 -314h-590c-8 68 -26 133.5 -54 196.5s-85.5 119.833 -172.5 170.5s-212.167 76 -375.5 76c-137.333 0 -257 -28.333 -359 -85s-153 -145.667 -153 -267c0 -101.333 28.833 -172.333 86.5 -213s132.834 -72.334 225.501 -95.001
l716 -176c242.667 -59.333 431.667 -145.833 567 -259.5s203 -290.5 203 -530.5c0 -206 -44.333 -374.667 -133 -506s-196.667 -229.333 -324 -294s-252.833 -108 -376.5 -130s-232.167 -33 -325.5 -33c-251.333 0 -461.5 31.833 -630.5 95.5s-298.333 145.5 -388 245.5
s-151.834 205.333 -186.501 316s-52 219.334 -52 326.001z" />
    <glyph glyph-name="T" unicode="T" horiz-adv-x="2503" 
d="M1561 2421v-2421h-615v2421h-889v520h2392v-520h-888z" />
    <glyph glyph-name="U" unicode="U" horiz-adv-x="2957" 
d="M2666 2941l-0.000976562 -1913c0 -376 -105.167 -654.333 -315.5 -835s-507.833 -271 -892.5 -271c-165.333 0 -332.666 26.667 -501.999 80s-313.333 145.666 -432 276.999c-144 163.333 -220.333 400.666 -229 711.999v1950h627v-1909
c0 -194.667 49.167 -341.667 147.5 -441s223.833 -149 376.5 -149c396 0 594 187.333 594 562v1937h626z" />
    <glyph glyph-name="V" unicode="V" horiz-adv-x="2732" 
d="M1376 713l639 2228h639l-999 -2941h-586l-991 2941h659l631 -2228h8z" />
    <glyph glyph-name="W" unicode="W" horiz-adv-x="3867" 
d="M897 0l-830.998 2941h655l225.5 -969l131 -588c25.667 -120 46.5 -223.333 62.5 -310s32 -181 48 -283h8l39.5 227.5c12.333 72.333 39.666 222 81.999 449l126.5 662l162 811.5h651c237.333 -1112.67 383.333 -1829.33 438 -2150h8l49.5 261c11.667 60 32 156 61 288
l160 702.5l209.5 898.5h622l-827 -2941h-590c-212.667 1013.33 -364.334 1778 -455.001 2294h-8c-22 -142.667 -44.333 -275.334 -67 -398.001l-64.5 -335.5l-101 -492.5l-222.5 -1068h-573z" />
    <glyph glyph-name="X" unicode="X" horiz-adv-x="2732" 
d="M1716 1528l959 -1528h-750l-557 1004l-594 -1004h-717l951 1503l-897 1438h733l524 -950l537 950h708z" />
    <glyph glyph-name="Y" unicode="Y" horiz-adv-x="2732" 
d="M1692 1102v-1102h-615v1110l-1016 1831h725l611 -1278l581 1278h697z" />
    <glyph glyph-name="Z" unicode="Z" horiz-adv-x="2503" 
d="M2400 520v-520h-2298v520l1520 1901h-1479v520h2249v-483l-1540 -1938h1548z" />
    <glyph glyph-name="bracketleft" unicode="[" horiz-adv-x="1364" 
d="M758 2564v-2974h508v-393h-1008v3760h1008v-393h-508z" />
    <glyph glyph-name="backslash" unicode="\" horiz-adv-x="1139" 
d="M795 -78l-930 3097h479l930 -3097h-479z" />
    <glyph glyph-name="bracketright" unicode="]" horiz-adv-x="1364" 
d="M606 -410v2974h-508v393h1008v-3760h-1008v393h508z" />
    <glyph glyph-name="asciicircum" unicode="^" horiz-adv-x="2392" 
d="M700 1323h-446l737 1536h410l737 -1536h-450l-492 1077z" />
    <glyph glyph-name="underscore" unicode="_" 
d="M2277 -512h-2277v205h2277v-205z" />
    <glyph glyph-name="grave" unicode="`" horiz-adv-x="1364" 
d="M508 2474l-602 598h631l385 -598h-414z" />
    <glyph glyph-name="a" unicode="a" 
d="M2032 1606l0.00195312 -1180c0 -118.667 10.833 -201.167 32.5 -247.5s53.167 -77.166 94.5 -92.499v-86h-619c-26.667 82 -44.334 168 -53.001 258c-92.667 -95.333 -190.5 -171.666 -293.5 -228.999s-240.167 -86 -411.5 -86c-115.333 0 -223.5 22.667 -324.5 68
s-182.667 115.666 -245 210.999s-93.5 214 -93.5 356c0 136.667 27 254.334 81 353.001s128 175.834 222 231.501s204.667 92.834 332 111.501l516 78c133.333 18 200 75.333 200 172c0 106 -35.833 174.833 -107.5 206.5s-161.167 47.5 -268.5 47.5
c-126.667 0 -214.167 -28.667 -262.5 -86s-78.5 -129.666 -90.5 -216.999h-553c20.667 208 78 368 172 480s207.5 186.833 340.5 224.5s287.167 56.5 462.5 56.5c129.333 0 259.166 -17 389.499 -51s242.833 -98 337.5 -192s142 -223 142 -387zM1470 781.995
l-0.000976562 279.001c-61.333 -48.667 -191 -88.334 -389 -119.001c-82 -14 -150.667 -31.667 -206 -53s-99.666 -53.666 -132.999 -96.999s-50 -102.666 -50 -177.999c0 -90 27.667 -156.167 83 -198.5s116.333 -63.5 183 -63.5c86 0 168.333 17.667 247 53
s142.5 85.666 191.5 150.999s73.5 140.666 73.5 225.999z" />
    <glyph glyph-name="b" unicode="b" horiz-adv-x="2503" 
d="M1778 1073c0 192 -38.834 351.334 -116.501 478.001s-201.5 190 -371.5 190c-327.333 0 -491 -233.667 -491 -701c0 -177.333 42.167 -326 126.5 -446s211.5 -180 381.5 -180c113.333 0 205.333 34.667 276 104s120.834 154.166 150.501 254.499s44.5 200.5 44.5 300.5z
M822.999 2941v-1045h8c147.333 226.667 357.666 340 630.999 340c122 0 237.333 -23.333 346 -70s205.167 -117 289.5 -211s150.333 -211.5 198 -352.5s71.5 -303.833 71.5 -488.5c0 -208 -32.667 -401.333 -98 -580s-167 -321.834 -305 -429.501
s-309.333 -161.5 -514 -161.5c-295.333 0 -505.666 110.333 -630.999 331h-8v-274h-561v2941h573z" />
    <glyph glyph-name="c" unicode="c" 
d="M1561 795l581.002 0.00195312c-6.66699 -72.667 -25.834 -154.834 -57.501 -246.501s-84.334 -184.167 -158.001 -277.5s-175.334 -171.333 -305.001 -234s-287.834 -94 -474.501 -94c-194 0 -357.333 33 -490 99s-236.5 152.333 -311.5 259s-128.167 222.667 -159.5 348
s-47 251.666 -47 378.999c0 241.333 36.5 452.5 109.5 633.5s187.5 322 343.5 423s353.333 151.5 592 151.5c136.667 0 274.834 -24.5 414.501 -73.5s261.667 -135.833 366 -260.5s164.833 -291.667 181.5 -501h-581c-42 234.667 -169 352 -381 352
c-111.333 0 -201.166 -31.667 -269.499 -95s-116.333 -142.5 -144 -237.5s-41.5 -194.5 -41.5 -298.5c0 -118 8 -226.5 24 -325.5s56.833 -187.5 122.5 -265.5s164.167 -117 295.5 -117c87.333 0 160.5 22.667 219.5 68s102.167 98.333 129.5 159s41 112 41 154z" />
    <glyph glyph-name="d" unicode="d" horiz-adv-x="2503" 
d="M2257 2941l-0.000976562 -2941h-561v274h-8c-126 -220.667 -336.333 -331 -631 -331c-204.667 0 -376.167 54 -514.5 162s-240.166 251.167 -305.499 429.5s-98 371.5 -98 579.5c0 181.333 24.167 343.333 72.5 486s114.5 261.167 198.5 355.5s180.167 164.666 288.5 211
c108.333 46.333 223.5 69.5 345.5 69.5c274.667 0 485 -113.333 631 -340h8v1045h574zM728.999 1073c0 -164 37.168 -314.833 111.501 -452.5s194.166 -206.5 359.499 -206.5c171.333 0 298.833 60 382.5 180s125.5 268.667 125.5 446c0 467.333 -163.667 701 -491 701
c-169.333 0 -293 -63.333 -371 -190s-117 -286 -117 -478z" />
    <glyph glyph-name="e" unicode="e" 
d="M1548 639l589.998 -0.000976562c-69.333 -242 -193.166 -418.5 -371.499 -529.5s-373.833 -166.5 -586.5 -166.5c-158 0 -302.833 20.833 -434.5 62.5s-246.334 109 -344.001 202s-173.334 217 -227.001 372s-80.5 340.167 -80.5 555.5c0 91.333 12 195.833 36 313.5
s71.167 236.834 141.5 357.501s177 222.5 320 305.5s325.5 124.5 547.5 124.5c120.667 0 239.834 -17.5 357.501 -52.5s226.834 -96 327.501 -183s182.334 -210.5 245.001 -370.5s94 -358 94 -594v-102h-1495c8 -88.667 23.333 -169.667 46 -243s71.167 -140 145.5 -200
s181.166 -90 320.499 -90c83.333 0 160.333 21.333 231 64s116.334 100.667 137.001 174zM683.998 1307h889.001c-14.667 160.667 -64.834 277.167 -150.501 349.5s-183.167 108.5 -292.5 108.5c-262 0 -410.667 -152.667 -446 -458z" />
    <glyph glyph-name="f" unicode="f" horiz-adv-x="1364" 
d="M930 1769l0.000976562 -1769h-574v1769h-315v410h315v176c0 415.333 213 623 639 623c131.333 0 229.666 -2.66699 294.999 -8v-463h-160c-64 0 -110 -7.33301 -138 -22s-45.333 -37.167 -52 -67.5s-10 -81.166 -10 -152.5v-86h373v-410h-373z" />
    <glyph glyph-name="g" unicode="g" horiz-adv-x="2503" 
d="M1716 2179l548.999 -0.000976562v-2064c0 -178.667 -20.5 -337.834 -61.5 -477.501s-143 -262.334 -306 -368.001s-407.833 -158.5 -734.5 -158.5c-159.333 0 -309.666 23.5 -450.999 70.5s-258 119.833 -350 218.5s-141.667 221 -149 367h623
c15.333 -71.333 49 -126.166 101 -164.499s152 -57.5 300 -57.5c154.667 0 269.167 39.833 343.5 119.5s111.5 206.5 111.5 380.5v262l-9 8c-56.667 -101.333 -128.667 -181.166 -216 -239.499s-209 -87.5 -365 -87.5c-179.333 0 -339.833 41.833 -481.5 125.5
s-253.167 210.334 -334.5 380.001s-122 376.5 -122 620.5c0 181.333 24.167 343.333 72.5 486s114.5 261.167 198.5 355.5s180.167 164.666 288.5 211c108.333 46.333 223.5 69.5 345.5 69.5c302.667 0 515.667 -127 639 -381h8v324zM753.999 1077
c0 -100 15.166 -196.333 45.499 -289s79.333 -168.667 147 -228s154.834 -89 261.501 -89c120 0 216.667 30 290 90s124.666 137.333 153.999 232s44 197.667 44 309c0 119.333 -19.167 227.5 -57.5 324.5s-94.666 173.667 -168.999 230s-162.833 84.5 -265.5 84.5
c-78 0 -150.833 -21.167 -218.5 -63.5s-123.167 -113 -166.5 -212s-65 -228.5 -65 -388.5z" />
    <glyph glyph-name="h" unicode="h" horiz-adv-x="2503" 
d="M2236 1507l-0.000976562 -1507h-573v1323c0 75.333 -6.83301 143.166 -20.5 203.499s-48.167 113.166 -103.5 158.499s-138.333 68 -249 68c-85.333 0 -162 -19.167 -230 -57.5s-121.667 -95.666 -161 -171.999s-59 -167.833 -59 -274.5v-1249h-574v2941h574v-1045h8
c38.667 94.667 116.167 175 232.5 241s249.166 99 398.499 99c144.667 0 274.334 -28 389.001 -84s204.667 -138.667 270.001 -248c65.333 -109.333 98 -241.666 98 -396.999z" />
    <glyph glyph-name="i" unicode="i" horiz-adv-x="1139" 
d="M283 2179h573v-2179h-573v2179zM856 2970v-533h-573v533h573z" />
    <glyph glyph-name="j" unicode="j" horiz-adv-x="1139" 
d="M856 2179l0.000976562 -2408c0 -182 -26.833 -320.167 -80.5 -414.5s-130 -156.833 -229 -187.5s-229.167 -46 -390.5 -46h-144v459h103c47.333 0 87.166 11.667 119.499 35s48.5 78.666 48.5 165.999v2396h573zM856.001 2970v-533h-573v533h573z" />
    <glyph glyph-name="k" unicode="k" 
d="M856 688v-688h-573v2941h573v-1589l721 827h704l-770 -844l791 -1335h-688l-520 934z" />
    <glyph glyph-name="l" unicode="l" horiz-adv-x="1139" 
d="M856 2941v-2941h-573v2941h573z" />
    <glyph glyph-name="m" unicode="m" horiz-adv-x="3641" 
d="M3383 1507l0.00292969 -1507h-573v1323c0 286.667 -103.667 430 -311 430c-260 0 -390 -148.667 -390 -446v-1307h-573v1311c0 86.667 -5.83301 159.834 -17.5 219.501s-42.334 111.667 -92.001 156s-127.834 66.5 -234.501 66.5c-237.333 0 -356 -142 -356 -426v-1327
h-574v2179h549v-319h8c130 250.667 336.333 376 619 376c151.333 0 270.666 -27.167 357.999 -81.5s170 -143.166 248 -266.499c65.333 96 141 178 227 246s204.333 102 355 102c144.667 0 274.334 -28 389 -84c114.667 -56 204.667 -138.667 270 -248
s98 -241.666 98 -396.999z" />
    <glyph glyph-name="n" unicode="n" horiz-adv-x="2503" 
d="M2236 1507l-0.00195312 -1507h-573v1323c0 75.333 -6.83301 143.166 -20.5 203.499s-48.167 113.166 -103.5 158.499s-138.333 68 -249 68c-85.333 0 -162 -19.167 -230 -57.5s-121.667 -95.666 -161 -171.999s-59 -167.833 -59 -274.5v-1249h-574v2179h549v-319h8
c149.333 250.667 368 376 656 376c144.667 0 274.334 -28 389.001 -84s204.667 -138.667 270.001 -248c65.333 -109.333 98 -241.666 98 -396.999z" />
    <glyph glyph-name="o" unicode="o" horiz-adv-x="2503" 
d="M2367 1090c0 -190 -29.5049 -357.669 -88.5049 -503.002s-140 -265.5 -243 -360.5s-221.833 -166 -356.5 -213s-276.667 -70.5 -426 -70.5c-201.333 0 -386.666 42.167 -555.999 126.5s-304.666 212.5 -405.999 384.5s-152 384 -152 636
c0 190.667 29.833 358.834 89.5 504.501s141.334 265.834 245.001 360.501s221.834 165.167 354.501 211.5s274.334 69.5 425.001 69.5c151.333 0 293.5 -23.167 426.5 -69.5s251.333 -117 355 -212s185 -215.167 244 -360.5s88.5 -313.333 88.5 -504zM1778 1090
c0 180.667 -38 336.334 -114 467.001s-213 196 -411 196c-197.333 0 -334 -65.833 -410 -197.5s-114 -286.834 -114 -465.501s38 -334 114 -466s212.667 -198 410 -198c198 0 335 65.667 411 197s114 287 114 467z" />
    <glyph glyph-name="p" unicode="p" horiz-adv-x="2503" 
d="M803 1040c0 -178 41.499 -326.832 124.499 -446.499s209.5 -179.5 379.5 -179.5c113.333 0 205.333 34.667 276 104s120.834 154.166 150.501 254.499s44.5 200.5 44.5 300.5c0 192 -38.833 351.333 -116.5 478s-201.5 190 -371.5 190
c-324.667 0 -487 -233.667 -487 -701zM802.999 2179v-315h8c70.667 112.667 154.167 202.834 250.5 270.501s229.833 101.5 400.5 101.5c122 0 237.333 -23.333 346 -70s205.167 -117 289.5 -211s150.333 -211.5 198 -352.5s71.5 -303.833 71.5 -488.5
c0 -208 -32.667 -401.333 -98 -580s-167 -321.834 -305 -429.501s-309.333 -161.5 -514 -161.5c-279.333 0 -484 112 -614 336h-9v-1127h-573v3027h549z" />
    <glyph glyph-name="q" unicode="q" horiz-adv-x="2503" 
d="M1712 2179l549.002 0.000976562v-3027h-573v1118h-9c-116.667 -218 -322.667 -327 -618 -327c-212.667 0 -388.334 56.5 -527.001 169.5s-239.167 254 -301.5 423s-93.5 338.5 -93.5 508.5c0 212 33.833 408.5 101.5 589.5s173.167 326.667 316.5 437
s322.333 165.5 537 165.5c163.333 0 290.666 -36.833 381.999 -110.5s167.333 -163.834 228 -270.501h8v324zM729.002 1049c0 -415.333 164 -623.001 492 -623.001c142.667 0 258.167 55 346.5 165s132.5 272 132.5 486c0 180.667 -29.833 320.667 -89.5 420
s-126.5 164.833 -200.5 196.5s-141.333 47.5 -202 47.5c-83.333 0 -160.833 -20.667 -232.5 -62s-130.667 -113.166 -177 -215.499s-69.5 -240.5 -69.5 -414.5z" />
    <glyph glyph-name="r" unicode="r" horiz-adv-x="1593" 
d="M262 0l0.00195312 2179h549v-377h8c53.333 97.333 102.333 174.666 147 231.999s103.667 105.333 177 144s164.666 58 273.999 58c24.667 0 61.667 -2.66699 111 -8v-581c-32.667 5.33301 -87.334 8 -164.001 8c-352 0 -528 -173.333 -528 -520v-1135h-574z" />
    <glyph glyph-name="s" unicode="s" 
d="M2060 1516l-561 -0.000976562c-15.333 89.333 -48.5 159.333 -99.5 210s-146.167 76 -285.5 76c-234.667 0 -352 -71 -352 -213c0 -73.333 77.5 -129.666 232.5 -168.999s320.5 -79.166 496.5 -119.499s325.833 -106.333 449.5 -198s185.5 -228.5 185.5 -410.5
c0 -194 -52 -347 -156 -459s-228.167 -188.333 -372.5 -229s-286.5 -61 -426.5 -61c-287.333 0 -532 58.667 -734 176s-306.667 309.666 -314 576.999h590c0 -212.667 158.333 -319 475 -319c131.333 0 224.833 23.667 280.5 71s83.5 98.666 83.5 153.999
c0 78.667 -80.667 138.5 -242 179.5l-494 120c-168 39 -312.5 103.667 -433.5 194s-181.5 227.5 -181.5 411.5c0 118.667 27.833 233.334 83.5 344.001s149.334 202.5 281.001 275.5s303.5 109.5 515.5 109.5c617.333 0 943.666 -240 978.999 -720z" />
    <glyph glyph-name="t" unicode="t" horiz-adv-x="1364" 
d="M909 2769l-0.000976562 -590h357v-410h-357v-1183c0 -50.667 4 -87 12 -109s28.5 -38.667 61.5 -50s87.833 -17 164.5 -17c24.667 0 64.334 2.66699 119.001 8v-434c-135.333 -6 -225.666 -9 -270.999 -9h-73c-158 0 -279.833 18.833 -365.5 56.5
s-143.834 90.5 -174.501 158.5s-46 153.333 -46 256v1323h-295v410h295v590h573z" />
    <glyph glyph-name="u" unicode="u" horiz-adv-x="2503" 
d="M2232 2179l0.000976562 -2179h-549v307h-8c-65.333 -117.333 -154.5 -207.333 -267.5 -270s-244.833 -94 -395.5 -94c-146.667 0 -275.834 28.667 -387.501 86s-198.667 146 -261 266s-93.5 270 -93.5 450v1434h574v-1352c0 -267.333 124.333 -401 373 -401
c116 0 218.667 38.5 308 115.5s134 203.833 134 380.5v1257h573z" />
    <glyph glyph-name="v" unicode="v" 
d="M2224 2179l-786 -2179h-602l-783 2179h639l451 -1606h8l463 1606h610z" />
    <glyph glyph-name="w" unicode="w" horiz-adv-x="3187" 
d="M3150 2179l-627 -2179h-590l-340 1589h-8l-340 -1589h-590l-614 2179h610l340 -1565h8l308 1565h577l328 -1565h8l340 1565h590z" />
    <glyph glyph-name="x" unicode="x" 
d="M1475 1110l741 -1110h-709l-377 655l-376 -655h-693l742 1110l-713 1069h696l369 -635l361 635h675z" />
    <glyph glyph-name="y" unicode="y" 
d="M2208 2179l-750 -2142c-72 -216 -132.333 -381.667 -181 -497s-100.5 -203.166 -155.5 -263.499s-120.333 -101 -196 -122s-179.5 -31.5 -311.5 -31.5c-48.667 0 -134.667 3 -258 9v458c33.333 -5.33301 70.333 -8 111 -8c118 0 204.333 20 259 60s94 129.333 118 268
l-803 2269h639l467 -1606h8l447 1606h606z" />
    <glyph glyph-name="z" unicode="z" horiz-adv-x="2048" 
d="M1925 1708l-1102 -1237h1143v-471h-1884v446l1118 1274h-1040v459h1765v-471z" />
    <glyph glyph-name="braceleft" unicode="{" horiz-adv-x="1593" 
d="M1495 -442l-0.00195312 -360.998h-340c-92 0 -181.833 20.833 -269.5 62.5s-160.167 105 -217.5 190s-86 187.833 -86 308.5v820c0 110.667 -42.667 190.167 -128 238.5s-171 72.5 -257 72.5v377c85.333 0 170.833 24 256.5 72s128.5 127.667 128.5 239v819
c0 120.667 28.667 223.5 86 308.5s129.833 148.333 217.5 190s177.5 62.5 269.5 62.5h340v-360h-184c-93.333 0 -155 -24.833 -185 -74.5s-45 -114.834 -45 -195.501v-803c-17.333 -151.333 -74.166 -260.333 -170.499 -327s-195.166 -105.334 -296.499 -116.001v-8
c100 -9.33301 198.5 -47.166 295.5 -113.499s154.167 -175.833 171.5 -328.5v-803c0 -80.667 15 -145.834 45 -195.501s91.667 -74.5 185 -74.5h184z" />
    <glyph glyph-name="bar" unicode="|" horiz-adv-x="1147" 
d="M344 -78v3097h459v-3097h-459z" />
    <glyph glyph-name="braceright" unicode="}" horiz-adv-x="1593" 
d="M1397 1266v-377.001c-86.667 0 -172.5 -24.333 -257.5 -73s-127.5 -128 -127.5 -238v-820c0 -120.667 -28.667 -223.5 -86 -308.5s-130 -148.333 -218 -190s-178 -62.5 -270 -62.5h-340v361h185c93.333 0 154.833 24.833 184.5 74.5s44.5 114.834 44.5 195.501v803
c18.667 152.667 76.167 262.167 172.5 328.5s194.5 104.166 294.5 113.499v8c-101.333 10.667 -200 49.334 -296 116.001s-153 175.667 -171 327v803c0 80.667 -14.833 145.834 -44.5 195.5c-29.667 49.667 -91.167 74.5 -184.5 74.5h-185v360h340
c92 0 182 -20.833 270 -62.5s160.667 -105 218 -190s86 -187.833 86 -308.5v-819c0 -110.667 42.667 -190.167 128 -238.5s171 -72.5 257 -72.5z" />
    <glyph glyph-name="asciitilde" unicode="~" horiz-adv-x="2392" 
d="M1995 1405l147.001 -368.999c-54.667 -75.333 -103.334 -136.5 -146.001 -183.5s-94.667 -86.833 -156 -119.5s-131.333 -49 -210 -49c-113.333 0 -252.666 45 -417.999 135c-174.667 98.667 -331.667 148 -471 148c-137.333 0 -252 -99.667 -344 -299l-147 368
c123.333 235.333 294 353 512 353c107.333 0 259 -44 455 -132l159 -71.5c51.333 -23.667 98.333 -42.834 141 -57.501s81.667 -22 117 -22c72.667 0 134.667 25.167 186 75.5s109.666 124.833 174.999 223.5z" />
    <glyph glyph-name="sterling" unicode="&#xa3;" 
d="M1982 2941l0.000976562 -2089c0 -204.667 -35 -376.334 -105 -515.001s-172.833 -241.834 -308.5 -309.501s-302.167 -101.5 -499.5 -101.5c-232 0 -416.333 33.5 -553 100.5s-234.834 155.333 -294.501 265s-96.5 226.167 -110.5 349.5s-21 279.666 -21 468.999h574
c0 -170 7.66699 -302.833 23 -398.5s48.833 -167.834 100.5 -216.501s130.5 -73 236.5 -73c144.667 0 238.167 36.667 280.5 110s63.5 180 63.5 320v2089h614z" />
    <glyph glyph-name="section" unicode="&#xa4;" 
d="M1139 999c82 0 155.667 20.5 221 61.5s115.833 96.833 151.5 167.5s53.5 148.667 53.5 234c0 86 -17.833 163.5 -53.5 232.5s-86 123.333 -151 163s-138.833 59.5 -221.5 59.5c-124.667 0 -225.5 -42.833 -302.5 -128.5s-115.5 -194.5 -115.5 -326.5
s38.5 -242.167 115.5 -330.5s177.833 -132.5 302.5 -132.5zM-12 582l401 401c-84.667 138 -127 297.667 -127 479c0 180.667 42.333 337.667 127 471l-401 402l270 270l401 -401c148.667 90 308.667 135 480 135c180 0 339.667 -45 479 -135l401 401l271 -270l-402 -402
c90 -136 135 -293 135 -471c0 -182 -45 -341.667 -135 -479l402 -401l-271 -271l-401 402c-137.333 -90 -297 -135 -479 -135c-173.333 0 -333.333 45 -480 135l-401 -402z" />
    <glyph glyph-name="paragraph" unicode="&#xa6;" horiz-adv-x="1147" 
d="M344 -78v1188h459v-1188h-459zM344 1831v1188h459v-1188h-459z" />
    <glyph glyph-name="germandbls" unicode="&#xa7;" 
d="M983 2097l664.005 -332.001c102 -51.333 188.333 -104.833 259 -160.5s127 -124.667 169 -207s63 -182.166 63 -299.499c0 -40.667 -13.333 -96.5 -40 -167.5s-69.834 -142.667 -129.501 -215s-132.834 -127.833 -219.501 -166.5
c169.333 -140.667 254 -315.334 254 -524.001c0 -165.333 -41.167 -307 -123.5 -425s-190.666 -206.5 -324.999 -265.5s-279.833 -88.5 -436.5 -88.5c-220.667 0 -394.834 45.667 -522.501 137s-215.5 195.833 -263.5 313.5s-72.667 222.834 -74 315.501h541
c22.667 -220.667 142.667 -331 360 -331c109.333 0 185.833 32.167 229.5 96.5s65.5 128.833 65.5 193.5s-18.667 116.167 -56 154.5s-99.333 79.833 -186 124.5l-626 319c-102.667 52 -186.334 106.333 -251.001 163s-113.5 124.5 -146.5 203.5s-49.5 176.833 -49.5 293.5
c0 219.333 127 399.333 381 540c-142 130 -213 288.667 -213 476c0 127.333 32.5 247.166 97.5 359.5c65 112.333 160.167 202.666 285.5 271c125.333 68.333 273.666 102.5 444.999 102.5c141.333 0 272.666 -23.167 393.999 -69.5s222 -125.5 302 -237.5
s123.667 -259.667 131 -443h-520c-13.333 210.667 -120 316 -320 316c-90 0 -161.667 -23.667 -215 -71s-80 -100.333 -80 -159c0 -93.333 52 -165.666 156 -217zM1397 1266l-598 303c-54.667 -19.333 -97.667 -54.666 -129 -105.999s-47 -95.333 -47 -132
c0 -104 62.667 -188.667 188 -254l643 -344c117.333 65.333 176 155.666 176 270.999c0 94 -77.667 181.333 -233 262z" />
    <glyph glyph-name="registered" unicode="&#xa8;" horiz-adv-x="2732" 
d="M1225 3277h-516v471h516v-471zM2023 3277h-516v471h516v-471zM2474 2421h-1561v-619h1434v-520h-1434v-762h1631v-520h-2233v2941h2163v-520z" />
    <glyph glyph-name="copyright" unicode="&#xa9;" horiz-adv-x="3019" 
d="M3068 1475c0 -237.333 -41.667 -453.333 -125 -648s-197.833 -359.167 -343.5 -493.5s-312 -236.5 -499 -306.5s-383.5 -105 -589.5 -105c-205.333 0 -401.333 35 -588 105s-353.167 172.667 -499.5 308s-261 299.833 -344 493.5s-124.5 409.167 -124.5 646.5
c0 238 41.5 453.5 124.5 646.5s197.167 356.167 342.5 489.5s311.333 234.666 498 304c186.667 69.333 383.667 104 591 104c208 0 405.5 -34.667 592.5 -104s352.833 -170.333 497.5 -303s258.667 -295.834 342 -489.5c83.333 -193.667 125 -409.5 125 -647.5zM2621 1475
c0 173.333 -28.999 333.669 -86.999 481.002s-138.333 273.666 -241 379c-102.667 105.333 -221.167 186.166 -355.5 242.5c-134.333 56.333 -276.5 84.5 -426.5 84.5c-204 0 -390.833 -49.833 -560.5 -149.5s-303.667 -239.834 -402 -420.501
s-147.5 -386.334 -147.5 -617.001c0 -231.333 49.167 -438 147.5 -620s232.166 -322.833 401.499 -422.5s356.333 -149.5 561 -149.5v-4c150 0 292 28.333 426 85s252.667 138.5 356 245.5s183.833 234.5 241.5 382.5s86.5 309 86.5 483zM1937 1241l369.001 0.000976562
c-30.667 -200 -114.5 -357.167 -251.5 -471.5s-297.5 -171.5 -481.5 -171.5c-167.333 0 -315.833 39 -445.5 117s-229.834 184.667 -300.501 320s-106 286 -106 452c0 169.333 34 321.166 102 455.499s166.167 239.5 294.5 315.5s277.5 114 447.5 114
c124.667 0 237.667 -23.833 339 -71.5s185.666 -118.5 252.999 -212.5s111.666 -208.333 133 -343h-353c-17.333 90 -60 157.5 -128 202.5s-149.333 67.5 -244 67.5c-86.667 0 -162 -21.333 -226 -64s-112.667 -103.167 -146 -181.5s-50 -169.833 -50 -274.5
c0 -101.333 18.167 -193 54.5 -275s87.333 -146.833 153 -194.5s139.834 -71.5 222.501 -71.5c104 0 188.667 24.5 254 73.5s102 120.167 110 213.5z" />
    <glyph glyph-name="acute" unicode="&#xab;" 
d="M1044 1507l-409 -360l409 -361v-475l-684 590v492l684 589v-475zM1917 1507l-410 -360l410 -361v-475l-684 590v492l684 589v-475z" />
    <glyph glyph-name="dieresis" unicode="&#xac;" horiz-adv-x="2392" 
d="M1769 442v815h-1605v459h2064v-1274h-459z" />
    <glyph glyph-name="notequal" unicode="&#xad;" horiz-adv-x="1364" 
d="M1389 2777v-303h-1414v303h1414z" />
    <glyph glyph-name="AE" unicode="&#xae;" horiz-adv-x="3019" 
d="M1253 1339v-700.001h-356v1667h623c226 0 396.5 -38.167 511.5 -114.5s172.5 -206.166 172.5 -389.499c0 -270 -134 -414.667 -402 -434l426 -729h-422l-385 700h-168zM1253 1622h316c88.667 0 153.167 14.667 193.5 44s60.5 87 60.5 173c0 76 -30 125.667 -90 149
s-136.667 35 -230 35h-250v-401zM3064 1470c0 -236.667 -41.3369 -451.664 -124.004 -644.997s-196.5 -357.333 -341.5 -492s-311.167 -236.834 -498.5 -306.501s-383.666 -104.5 -588.999 -104.5c-204.667 0 -401.167 35 -589.5 105s-355.166 172.167 -500.499 306.5
s-259.333 298.166 -342 491.499s-124 408.333 -124 645c0 237.333 41.333 453 124 647s196.334 357.667 341.001 491s310.834 235.166 498.501 305.499s385.167 105.5 592.5 105.5c208 0 405.5 -35 592.5 -105s352.5 -171.833 496.5 -305.5s257.333 -297.5 340 -491.5
s124 -409.667 124 -647zM2617 1470c0 174 -28.999 334.67 -86.999 482.003s-138 273.5 -240 378.5s-220 185.833 -354 242.5s-275.667 85 -425 85c-204 0 -390.833 -49.833 -560.5 -149.5s-303.667 -240.167 -402 -421.5s-147.5 -387 -147.5 -617
c0 -230.667 49.167 -436.334 147.5 -617.001s232.333 -320.834 402 -420.501s356.5 -149.5 560.5 -149.5v-4c149.333 0 291.166 28.5 425.499 85.5s252.5 138.667 354.5 245s181.833 233.166 239.5 380.499s86.5 307.333 86.5 480z" />
    <glyph glyph-name="Oslash" unicode="&#xaf;" horiz-adv-x="1139" 
d="M877 2941v-2941h-615v2941h615zM430 3748v-471h-516v471h516zM1229 3748v-471h-516v471h516z" />
    <glyph glyph-name="infinity" unicode="&#xb0;" horiz-adv-x="1638" 
d="M233 2331c0 106 26.333 203.833 79 293.5s124 160.667 214 213s187.667 78.5 293 78.5c162.667 0 301 -57 415 -171s171 -252 171 -414s-57.167 -300.167 -171.5 -414.5s-252.5 -171.5 -414.5 -171.5c-105.333 0 -203 26.167 -293 78.5s-161.333 123.5 -214 213.5
s-79 188 -79 294zM463 2331c0 -99.333 34.6689 -183.666 104.002 -253c69.333 -69.333 153.333 -104 252 -104c99.333 0 183.666 34.667 252.999 104s104 153.666 104 253c0 98 -34.833 181.833 -104.5 251.5s-153.834 104.5 -252.501 104.5
c-98 0 -181.833 -34.833 -251.5 -104.5s-104.5 -153.5 -104.5 -251.5z" />
    <glyph glyph-name="plusminus" unicode="&#xb1;" horiz-adv-x="2392" 
d="M967 1561v512h458v-512h803v-459h-803v-516h-458v516h-803v459h803zM164 0v459h2064v-459h-2064z" />
    <glyph glyph-name="lessequal" unicode="&#xb2;" horiz-adv-x="1139" 
d="M877 2941v-2941h-615v2941h615z" />
    <glyph glyph-name="greaterequal" unicode="&#xb3;" horiz-adv-x="1139" 
d="M283 2179h573v-2179h-573v2179zM856 2970v-533h-573v533h573z" />
    <glyph glyph-name="mu" unicode="&#xb5;" horiz-adv-x="2503" 
d="M2232 2179l0.000976562 -2179h-549v307h-8c-62 -114.667 -140.5 -204 -235.5 -268s-185.833 -96 -272.5 -96c-144.667 0 -252.334 35.333 -323.001 106v-897h-574v3027h574v-1352c0 -267.333 124.333 -401 373 -401c116 0 218.667 38.5 308 115.5s134 203.833 134 380.5
v1257h573z" />
    <glyph glyph-name="partialdiff" unicode="&#xb6;" 
d="M877 -782v2203c-288 0 -511.667 63 -671 189s-239 299.333 -239 520c0 271.333 88 462 264 572s421.333 165 736 165h1241v-3649h-459v3301h-414v-3301h-458z" />
    <glyph glyph-name="summation" unicode="&#xb7;" horiz-adv-x="1139" 
d="M238 1036c0 92.667 32.168 171.166 96.501 235.499s142.5 96.5 234.5 96.5c61.333 0 117.166 -14.833 167.499 -44.5s90.333 -69.667 120 -120s44.5 -106.166 44.5 -167.499c0 -91.333 -31.5 -169.333 -94.5 -234s-142.167 -97 -237.5 -97
c-94.667 0 -173.5 32.333 -236.5 97s-94.5 142.667 -94.5 234z" />
    <glyph glyph-name="product" unicode="&#xb8;" 
d="M999 2515h-516v471h516v-471zM1798 2515h-516v471h516v-471zM2138 639c-69.333 -242 -193.168 -418.501 -371.501 -529.501s-373.833 -166.5 -586.5 -166.5c-158 0 -302.833 20.833 -434.5 62.5s-246.334 109 -344.001 202s-173.334 217 -227.001 372
s-80.5 340.167 -80.5 555.5c0 91.333 12 195.833 36 313.5s71.167 236.834 141.5 357.501s177 222.5 320 305.5s325.5 124.5 547.5 124.5c120.667 0 239.834 -17.5 357.501 -52.5s226.834 -96 327.501 -183s182.334 -210.5 245.001 -370.5s94 -358 94 -594v-102h-1495
c8 -88.667 23.333 -169.667 46 -243s71.167 -140 145.5 -200s181.166 -90 320.499 -90c83.333 0 160.333 21.333 231 64s116.334 100.667 137.001 174h590zM1573 1307c-14.667 160.667 -64.833 277.167 -150.5 349.5s-183.167 108.5 -292.5 108.5
c-262 0 -410.667 -152.667 -446 -458h889z" />
    <glyph glyph-name="pi" unicode="&#xb9;" horiz-adv-x="1495" 
d="M1475 2331c0 -181.333 -60.833 -341.5 -182.5 -480.5s-302.5 -208.5 -542.5 -208.5c-240.667 0 -421.667 69.5 -543 208.5s-182 299.167 -182 480.5c0 114.667 25.333 224.167 76 328.5s130.5 190.333 239.5 258s245.5 101.5 409.5 101.5s300.333 -33.833 409 -101.5
s188.5 -154.167 239.5 -259.5s76.5 -214.333 76.5 -327zM1073 2331c0 112 -28.667 205.5 -86 280.5s-136.333 112.5 -237 112.5s-179.834 -37.5 -237.501 -112.5s-86.5 -168.5 -86.5 -280.5c0 -111.333 28.833 -204.833 86.5 -280.5s136.834 -113.5 237.501 -113.5
s179.667 37.833 237 113.5s86 169.167 86 280.5zM135 1458h1229v-328h-1229v328z" />
    <glyph glyph-name="ordfeminine" unicode="&#xbb;" 
d="M1642 1147l-409 360v475l684 -589v-492l-684 -590v475zM770 1147l-410 360v475l684 -589v-492l-684 -590v475z" />
    <glyph glyph-name="ordmasculine" unicode="&#xbc;" horiz-adv-x="1139" 
d="M856 2179l0.000976562 -2408c0 -182 -26.833 -320.167 -80.5 -414.5s-130 -156.833 -229 -187.5s-229.167 -46 -390.5 -46h-144v459h103c47.333 0 87.166 11.667 119.499 35s48.5 78.666 48.5 165.999v2396h573zM856.001 2970v-533h-573v533h573z" />
    <glyph glyph-name="Omega" unicode="&#xbd;" horiz-adv-x="2732" 
d="M160 905l589.998 0.000976562c2.66699 -119.333 48.334 -228.333 137.001 -327s250.334 -148 485.001 -148c410 0 615 127 615 381c0 104 -42 179.667 -126 227s-219.667 93.333 -407 138l-315 73c-211.333 49.333 -378 98.666 -500 147.999
s-224.833 130.833 -308.5 244.5s-125.5 271.167 -125.5 472.5c0 136 31.167 272 93.5 408s177.666 252.833 345.999 350.5s398.5 146.5 690.5 146.5c213.333 0 394.833 -30.333 544.5 -91s268.334 -139.667 356.001 -237s150.334 -200.333 188 -309
c37.667 -108.667 57.167 -213.334 58.5 -314h-590c-8 68 -26 133.5 -54 196.5s-85.5 119.833 -172.5 170.5s-212.167 76 -375.5 76c-137.333 0 -257 -28.333 -359 -85s-153 -145.667 -153 -267c0 -101.333 28.833 -172.333 86.5 -213s132.834 -72.334 225.501 -95.001
l716 -176c242.667 -59.333 431.667 -145.833 567 -259.5s203 -290.5 203 -530.5c0 -206 -44.333 -374.667 -133 -506s-196.667 -229.333 -324 -294s-252.833 -108 -376.5 -130s-232.167 -33 -325.5 -33c-251.333 0 -461.5 31.833 -630.5 95.5s-298.333 145.5 -388 245.5
s-151.834 205.333 -186.501 316s-52 219.334 -52 326.001z" />
    <glyph glyph-name="ae" unicode="&#xbe;" 
d="M2060 1516l-561 -0.000976562c-15.333 89.333 -48.5 159.333 -99.5 210s-146.167 76 -285.5 76c-234.667 0 -352 -71 -352 -213c0 -73.333 77.5 -129.666 232.5 -168.999s320.5 -79.166 496.5 -119.499s325.833 -106.333 449.5 -198s185.5 -228.5 185.5 -410.5
c0 -194 -52 -347 -156 -459s-228.167 -188.333 -372.5 -229s-286.5 -61 -426.5 -61c-287.333 0 -532 58.667 -734 176s-306.667 309.666 -314 576.999h590c0 -212.667 158.333 -319 475 -319c131.333 0 224.833 23.667 280.5 71s83.5 98.666 83.5 153.999
c0 78.667 -80.667 138.5 -242 179.5l-494 120c-168 39 -312.5 103.667 -433.5 194s-181.5 227.5 -181.5 411.5c0 118.667 27.833 233.334 83.5 344.001s149.334 202.5 281.001 275.5s303.5 109.5 515.5 109.5c617.333 0 943.666 -240 978.999 -720z" />
    <glyph glyph-name="oslash" unicode="&#xbf;" horiz-adv-x="1139" 
d="M283 2179h573v-2179h-573v2179zM430 2986v-471h-516v471h516zM1229 2986v-471h-516v471h516z" />
    <glyph glyph-name="questiondown" unicode="&#xc0;" horiz-adv-x="2957" 
d="M729 0h-647l1048 2941h709l1036 -2941h-667l-189 606h-1085zM1098 1114h749l-364 1163h-8z" />
    <glyph glyph-name="questiondown" unicode="&#x410;" horiz-adv-x="2957" 
d="M729 0h-647l1048 2941h709l1036 -2941h-667l-189 606h-1085zM1098 1114h749l-364 1163h-8z" />
    <glyph glyph-name="exclamdown" unicode="&#xc1;" horiz-adv-x="2957" 
d="M901 1798l778 0.000976562c197.333 0 376.666 -34.833 537.999 -104.5s288.833 -172.5 382.5 -308.5s140.5 -298.667 140.5 -488c0 -186.667 -46.833 -347.834 -140.5 -483.501s-221.167 -238.5 -382.5 -308.5s-340.666 -105 -537.999 -105h-1368v2941h2212v-516h-1622
v-627zM901 1290l0.000976562 -782h778c136 0 244.5 34.833 325.5 104.5s121.5 164.5 121.5 284.5c0 122 -40.333 218.667 -121 290s-189.334 107 -326.001 107z" />
    <glyph glyph-name="exclamdown" unicode="&#x411;" horiz-adv-x="2957" 
d="M901 1798l778 0.000976562c197.333 0 376.666 -34.833 537.999 -104.5s288.833 -172.5 382.5 -308.5s140.5 -298.667 140.5 -488c0 -186.667 -46.833 -347.834 -140.5 -483.501s-221.167 -238.5 -382.5 -308.5s-340.666 -105 -537.999 -105h-1368v2941h2212v-516h-1622
v-627zM901 1290l0.000976562 -782h778c136 0 244.5 34.833 325.5 104.5s121.5 164.5 121.5 284.5c0 122 -40.333 218.667 -121 290s-189.334 107 -326.001 107z" />
    <glyph glyph-name="logicalnot" unicode="&#xc2;" horiz-adv-x="2957" 
d="M311 2941l1430 -0.00292969c222.667 0 401.667 -39.167 537.001 -117.5c135.333 -78.333 230.5 -174.5 285.5 -288.5s82.5 -230 82.5 -348c0 -183.333 -34.667 -316.666 -104 -399.999s-154.666 -150.666 -256 -201.999c302.667 -113.333 454 -351 454 -713
c0 -116 -22.333 -226.5 -67 -331.5s-107 -196.5 -187 -274.5c-66 -63.333 -131.667 -113.166 -197 -149.499s-155.666 -64.833 -271 -85.5c-115.333 -20.667 -269.333 -31 -462 -31h-1245v2941zM900.999 507.997h754c314 0 471 143.333 471 430
c0 120 -42.667 209.333 -128 268s-190.333 88 -315 88h-782v-786zM900.999 1790l720.999 -0.000976562c129.333 0 234 27 314 81s120 136.333 120 247c0 114.667 -37.667 195.834 -113 243.501s-187.666 71.5 -336.999 71.5h-705v-643z" />
    <glyph glyph-name="logicalnot" unicode="&#x412;" horiz-adv-x="2957" 
d="M311 2941l1430 -0.00292969c222.667 0 401.667 -39.167 537.001 -117.5c135.333 -78.333 230.5 -174.5 285.5 -288.5s82.5 -230 82.5 -348c0 -183.333 -34.667 -316.666 -104 -399.999s-154.666 -150.666 -256 -201.999c302.667 -113.333 454 -351 454 -713
c0 -116 -22.333 -226.5 -67 -331.5s-107 -196.5 -187 -274.5c-66 -63.333 -131.667 -113.166 -197 -149.499s-155.666 -64.833 -271 -85.5c-115.333 -20.667 -269.333 -31 -462 -31h-1245v2941zM900.999 507.997h754c314 0 471 143.333 471 430
c0 120 -42.667 209.333 -128 268s-190.333 88 -315 88h-782v-786zM900.999 1790l720.999 -0.000976562c129.333 0 234 27 314 81s120 136.333 120 247c0 114.667 -37.667 195.834 -113 243.501s-187.666 71.5 -336.999 71.5h-705v-643z" />
    <glyph glyph-name="radical" unicode="&#xc3;" horiz-adv-x="2503" 
d="M926 0h-615v2941h2134v-520h-1519v-2421z" />
    <glyph glyph-name="radical" unicode="&#x413;" horiz-adv-x="2503" 
d="M926 0h-615v2941h2134v-520h-1519v-2421z" />
    <glyph glyph-name="florin" unicode="&#xc4;" horiz-adv-x="2732" 
d="M418 1470v1471h2027v-2421h287v-1069h-573v549h-1622v-549h-574v1069c99.333 0 182.333 29 249 87s117.667 157.333 153 298s53 329 53 565zM1831 520v1901h-840v-951c0 -272.667 -19.333 -477.5 -58 -614.5s-95.667 -248.833 -171 -335.5h1069z" />
    <glyph glyph-name="florin" unicode="&#x414;" horiz-adv-x="2732" 
d="M418 1470v1471h2027v-2421h287v-1069h-573v549h-1622v-549h-574v1069c99.333 0 182.333 29 249 87s117.667 157.333 153 298s53 329 53 565zM1831 520v1901h-840v-951c0 -272.667 -19.333 -477.5 -58 -614.5s-95.667 -248.833 -171 -335.5h1069z" />
    <glyph glyph-name="approxequal" unicode="&#xc5;" horiz-adv-x="2736" 
d="M2474 2421h-1561v-619h1434v-520h-1434v-762h1631v-520h-2233v2941h2163v-520z" />
    <glyph glyph-name="approxequal" unicode="&#x415;" horiz-adv-x="2736" 
d="M2474 2421h-1561v-619h1434v-520h-1434v-762h1631v-520h-2233v2941h2163v-520z" />
    <glyph glyph-name="Delta" unicode="&#xc6;" horiz-adv-x="3871" 
d="M1630 0v995l-160 205l-704 -1200h-786l1060 1696l-995 1245h737l848 -1196v1196h615v-1196l847 1196h738l-996 -1245l1061 -1696h-786l-705 1200l-159 -205v-995h-615z" />
    <glyph glyph-name="Delta" unicode="&#x416;" horiz-adv-x="3871" 
d="M1630 0v995l-160 205l-704 -1200h-786l1060 1696l-995 1245h737l848 -1196v1196h615v-1196l847 1196h738l-996 -1245l1061 -1696h-786l-705 1200l-159 -205v-995h-615z" />
    <glyph glyph-name="guillemotleft" unicode="&#xc7;" horiz-adv-x="2732" 
d="M1921 1561c95.333 -10.667 192.832 -45.5029 292.498 -104.503c99.667 -59 183.667 -139.833 252 -242.5s102.5 -220.667 102.5 -354c0 -162.667 -38.667 -315.167 -116 -457.5s-203.333 -258 -378 -347s-399 -133.5 -673 -133.5c-251.333 0 -461.5 31.833 -630.5 95.5
s-298.667 145.834 -389 246.501s-152.666 206 -186.999 316s-51.5 218.333 -51.5 325h590c0 -66.667 19.333 -136.334 58 -209.001s106.667 -135.167 204 -187.5s228.666 -78.5 393.999 -78.5c155.333 0 288.333 40 399 120s166 183.333 166 310
c0 94.667 -26.667 174.334 -80 239.001s-123.833 113.334 -211.5 146.001s-183.167 49 -286.5 49h-467v496h459c150.667 0 272.334 31.333 365.001 94s139 151.334 139 266.001c0 73.333 -22.667 137.333 -68 192s-108 96.5 -188 125.5s-169.333 43.5 -268 43.5
c-156 0 -276.167 -25.5 -360.5 -76.5s-140.333 -109.333 -168 -175s-41.5 -129.5 -41.5 -191.5h-590c0 140 35.833 282.667 107.5 428s193.5 268.833 365.5 370.5s396.667 152.5 674 152.5c282.667 0 509.334 -46.333 680.001 -139s289.834 -205.167 357.5 -337.5
c67.667 -132.333 101.5 -263.166 101.5 -392.5c0 -171.333 -53.667 -303.333 -161 -396s-238 -157 -392 -193z" />
    <glyph glyph-name="guillemotleft" unicode="&#x417;" horiz-adv-x="2732" 
d="M1921 1561c95.333 -10.667 192.832 -45.5029 292.498 -104.503c99.667 -59 183.667 -139.833 252 -242.5s102.5 -220.667 102.5 -354c0 -162.667 -38.667 -315.167 -116 -457.5s-203.333 -258 -378 -347s-399 -133.5 -673 -133.5c-251.333 0 -461.5 31.833 -630.5 95.5
s-298.667 145.834 -389 246.501s-152.666 206 -186.999 316s-51.5 218.333 -51.5 325h590c0 -66.667 19.333 -136.334 58 -209.001s106.667 -135.167 204 -187.5s228.666 -78.5 393.999 -78.5c155.333 0 288.333 40 399 120s166 183.333 166 310
c0 94.667 -26.667 174.334 -80 239.001s-123.833 113.334 -211.5 146.001s-183.167 49 -286.5 49h-467v496h459c150.667 0 272.334 31.333 365.001 94s139 151.334 139 266.001c0 73.333 -22.667 137.333 -68 192s-108 96.5 -188 125.5s-169.333 43.5 -268 43.5
c-156 0 -276.167 -25.5 -360.5 -76.5s-140.333 -109.333 -168 -175s-41.5 -129.5 -41.5 -191.5h-590c0 140 35.833 282.667 107.5 428s193.5 268.833 365.5 370.5s396.667 152.5 674 152.5c282.667 0 509.334 -46.333 680.001 -139s289.834 -205.167 357.5 -337.5
c67.667 -132.333 101.5 -263.166 101.5 -392.5c0 -171.333 -53.667 -303.333 -161 -396s-238 -157 -392 -193z" />
    <glyph glyph-name="guillemotright" unicode="&#xc8;" horiz-adv-x="2957" 
d="M852 893h8l1168 2048h647v-2941h-574v2097h-8l-1200 -2097h-614v2941h573v-2048z" />
    <glyph glyph-name="guillemotright" unicode="&#x418;" horiz-adv-x="2957" 
d="M852 893h8l1168 2048h647v-2941h-574v2097h-8l-1200 -2097h-614v2941h573v-2048z" />
    <glyph glyph-name="ellipsis" unicode="&#xc9;" horiz-adv-x="2957" 
d="M852 893h8l1168 2048h647v-2941h-574v2097h-8l-1200 -2097h-614v2941h573v-2048zM2204 3547c-12.667 -145.333 -71.165 -281.333 -175.498 -408s-288.833 -190 -553.5 -190c-166 0 -296.833 35.167 -392.5 105.5s-161.334 150.333 -197.001 240
s-56.5 173.834 -62.5 252.5h271c15.333 -82 49.166 -150.333 101.499 -205s153.5 -82 303.5 -82c122 0 220.5 18 295.5 54s122.5 113.667 142.5 233h267z" />
    <glyph glyph-name="ellipsis" unicode="&#x419;" horiz-adv-x="2957" 
d="M852 893h8l1168 2048h647v-2941h-574v2097h-8l-1200 -2097h-614v2941h573v-2048zM2204 3547c-12.667 -145.333 -71.165 -281.333 -175.498 -408s-288.833 -190 -553.5 -190c-166 0 -296.833 35.167 -392.5 105.5s-161.334 150.333 -197.001 240
s-56.5 173.834 -62.5 252.5h271c15.333 -82 49.166 -150.333 101.499 -205s153.5 -82 303.5 -82c122 0 220.5 18 295.5 54s122.5 113.667 142.5 233h267z" />
    <glyph glyph-name="nonbreakingspace" unicode="&#xca;" horiz-adv-x="2957" 
d="M971 0h-615v2941h615v-1196l1122 1196h795l-1200 -1204l1269 -1737h-790l-910 1290l-286 -295v-995z" />
    <glyph glyph-name="nonbreakingspace" unicode="&#x41a;" horiz-adv-x="2957" 
d="M971 0h-615v2941h615v-1196l1122 1196h795l-1200 -1204l1269 -1737h-790l-910 1290l-286 -295v-995z" />
    <glyph glyph-name="Agrave" unicode="&#xcb;" horiz-adv-x="2732" 
d="M991 2421v-1491c0 -330.667 -79.833 -581.334 -239.5 -752.001s-399.167 -256 -718.5 -256v537c147.333 0 248.333 42 303 126s82 199 82 345v2011h2027v-2941h-614v2421h-840z" />
    <glyph glyph-name="Agrave" unicode="&#x41b;" horiz-adv-x="2732" 
d="M991 2421v-1491c0 -330.667 -79.833 -581.334 -239.5 -752.001s-399.167 -256 -718.5 -256v537c147.333 0 248.333 42 303 126s82 199 82 345v2011h2027v-2941h-614v2421h-840z" />
    <glyph glyph-name="Atilde" unicode="&#xcc;" horiz-adv-x="3412" 
d="M3133 0h-573v2130h-8l-549 -2130h-602l-537 2130h-8v-2130h-573v2941h897l532 -2032h8l525 2032h888v-2941z" />
    <glyph glyph-name="Atilde" unicode="&#x41c;" horiz-adv-x="3412" 
d="M3133 0h-573v2130h-8l-549 -2130h-602l-537 2130h-8v-2130h-573v2941h897l532 -2032h8l525 2032h888v-2941z" />
    <glyph glyph-name="Otilde" unicode="&#xcd;" horiz-adv-x="2957" 
d="M905 1319v-1319h-614v2941h614v-1114h1147v1114h614v-2941h-614v1319h-1147z" />
    <glyph glyph-name="Otilde" unicode="&#x41d;" horiz-adv-x="2957" 
d="M905 1319v-1319h-614v2941h614v-1114h1147v1114h614v-2941h-614v1319h-1147z" />
    <glyph glyph-name="OE" unicode="&#xce;" horiz-adv-x="3187" 
d="M1593 3019c130.667 0 271.501 -18.835 422.501 -56.502s302.833 -110.167 455.5 -217.5s280 -266.166 382 -476.499s153 -476.5 153 -798.5c0 -321.333 -51 -587.166 -153 -797.499s-229.833 -369.333 -383.5 -477s-306.5 -180.167 -458.5 -217.5s-291.333 -56 -418 -56
c-126 0 -265.333 18.833 -418 56.5s-305.834 110.5 -459.501 218.5s-281.334 266.833 -383.001 476.5s-152.5 475.167 -152.5 796.5c0 322 50.833 587.833 152.5 797.5s228.834 368.5 381.501 476.5s305 180.833 457 218.5s292.667 56.5 422 56.5zM1593 441.998
c92 0 183.831 16.1689 275.498 48.502s177.334 87.666 257.001 165.999s144 184.833 193 319.5s73.5 299.334 73.5 494.001c0 195.333 -24.5 360.5 -73.5 495.5s-113.167 241.5 -192.5 319.5s-165 133.167 -257 165.5s-184 48.5 -276 48.5
c-91.333 0 -183.166 -16.333 -275.499 -49s-178 -87.834 -257 -165.501s-143 -184 -192 -319s-73.5 -300.167 -73.5 -495.5c0 -194.667 24.5 -359.334 73.5 -494.001s113.167 -241 192.5 -319s165 -133.333 257 -166s183.667 -49 275 -49z" />
    <glyph glyph-name="OE" unicode="&#x41e;" horiz-adv-x="3187" 
d="M1593 3019c130.667 0 271.501 -18.835 422.501 -56.502s302.833 -110.167 455.5 -217.5s280 -266.166 382 -476.499s153 -476.5 153 -798.5c0 -321.333 -51 -587.166 -153 -797.499s-229.833 -369.333 -383.5 -477s-306.5 -180.167 -458.5 -217.5s-291.333 -56 -418 -56
c-126 0 -265.333 18.833 -418 56.5s-305.834 110.5 -459.501 218.5s-281.334 266.833 -383.001 476.5s-152.5 475.167 -152.5 796.5c0 322 50.833 587.833 152.5 797.5s228.834 368.5 381.501 476.5s305 180.833 457 218.5s292.667 56.5 422 56.5zM1593 441.998
c92 0 183.831 16.1689 275.498 48.502s177.334 87.666 257.001 165.999s144 184.833 193 319.5s73.5 299.334 73.5 494.001c0 195.333 -24.5 360.5 -73.5 495.5s-113.167 241.5 -192.5 319.5s-165 133.167 -257 165.5s-184 48.5 -276 48.5
c-91.333 0 -183.166 -16.333 -275.499 -49s-178 -87.834 -257 -165.501s-143 -184 -192 -319s-73.5 -300.167 -73.5 -495.5c0 -194.667 24.5 -359.334 73.5 -494.001s113.167 -241 192.5 -319s165 -133.333 257 -166s183.667 -49 275 -49z" />
    <glyph glyph-name="oe" unicode="&#xcf;" horiz-adv-x="2957" 
d="M905 2421v-2421h-614v2941h2375v-2941h-614v2421h-1147z" />
    <glyph glyph-name="oe" unicode="&#x41f;" horiz-adv-x="2957" 
d="M905 2421v-2421h-614v2941h2375v-2941h-614v2421h-1147z" />
    <glyph glyph-name="emdash" unicode="&#xd0;" horiz-adv-x="2732" 
d="M926 0h-615v2941h1344c187.333 0 349.833 -38.167 487.5 -114.5s243 -185.666 316 -328c73 -142.333 109.5 -308.833 109.5 -499.5c0 -118 -26.333 -249 -79 -393s-149 -270.833 -289 -380.5s-330 -164.5 -570 -164.5h-704v-1061zM1495 1569
c196.667 0 322.333 46.332 377 138.999s82 199.334 82 320.001c0 142.667 -42.5 245.834 -127.5 309.5c-85 63.667 -222.833 95.5 -413.5 95.5h-487v-864h569z" />
    <glyph glyph-name="emdash" unicode="&#x420;" horiz-adv-x="2732" 
d="M926 0h-615v2941h1344c187.333 0 349.833 -38.167 487.5 -114.5s243 -185.666 316 -328c73 -142.333 109.5 -308.833 109.5 -499.5c0 -118 -26.333 -249 -79 -393s-149 -270.833 -289 -380.5s-330 -164.5 -570 -164.5h-704v-1061zM1495 1569
c196.667 0 322.333 46.332 377 138.999s82 199.334 82 320.001c0 142.667 -42.5 245.834 -127.5 309.5c-85 63.667 -222.833 95.5 -413.5 95.5h-487v-864h569z" />
    <glyph glyph-name="endash" unicode="&#xd1;" horiz-adv-x="2957" 
d="M2187 1978c-38.667 142 -101.668 262.168 -189.001 360.501s-241.333 147.5 -462 147.5c-189.333 0 -358.166 -78.333 -506.499 -235s-222.5 -421 -222.5 -793c0 -184.667 25.5 -352.834 76.5 -504.501s131 -272.667 240 -363s246.5 -135.5 412.5 -135.5
c114 0 215.5 21 304.5 63s163.167 104.833 222.5 188.5s100.666 184.167 123.999 301.5h615c-42 -217.333 -117.167 -407.5 -225.5 -570.5s-251 -289.667 -428 -380s-385.167 -135.5 -624.5 -135.5c-263.333 0 -496.5 58.833 -699.5 176.5s-361.167 293 -474.5 526
s-170 513.5 -170 841.5c0 332 58.833 615 176.5 849s279 409.833 484 527.5s435.5 176.5 691.5 176.5c208.667 0 392.834 -32 552.501 -96s290.5 -147.833 392.5 -251.5s179.5 -215.667 232.5 -336s83.833 -239.5 92.5 -357.5h-615z" />
    <glyph glyph-name="endash" unicode="&#x421;" horiz-adv-x="2957" 
d="M2187 1978c-38.667 142 -101.668 262.168 -189.001 360.501s-241.333 147.5 -462 147.5c-189.333 0 -358.166 -78.333 -506.499 -235s-222.5 -421 -222.5 -793c0 -184.667 25.5 -352.834 76.5 -504.501s131 -272.667 240 -363s246.5 -135.5 412.5 -135.5
c114 0 215.5 21 304.5 63s163.167 104.833 222.5 188.5s100.666 184.167 123.999 301.5h615c-42 -217.333 -117.167 -407.5 -225.5 -570.5s-251 -289.667 -428 -380s-385.167 -135.5 -624.5 -135.5c-263.333 0 -496.5 58.833 -699.5 176.5s-361.167 293 -474.5 526
s-170 513.5 -170 841.5c0 332 58.833 615 176.5 849s279 409.833 484 527.5s435.5 176.5 691.5 176.5c208.667 0 392.834 -32 552.501 -96s290.5 -147.833 392.5 -251.5s179.5 -215.667 232.5 -336s83.833 -239.5 92.5 -357.5h-615z" />
    <glyph glyph-name="quotedblleft" unicode="&#xd2;" horiz-adv-x="2503" 
d="M1561 0h-615v2421h-889v520h2392v-520h-888v-2421z" />
    <glyph glyph-name="quotedblleft" unicode="&#x422;" horiz-adv-x="2503" 
d="M1561 0h-615v2421h-889v520h2392v-520h-888v-2421z" />
    <glyph glyph-name="quotedblright" unicode="&#xd3;" horiz-adv-x="2957" 
d="M1225 -45c-174.667 0 -310 15 -406 45v524c72 -32.667 141.667 -49 209 -49c128 0 221 56 279 168l12 25l-1229 2273h733l791 -1643l598 1643h704l-1061 -2449c-49.333 -116 -113.833 -214.333 -193.5 -295s-159.667 -141.167 -240 -181.5s-145.833 -60.5 -196.5 -60.5z
" />
    <glyph glyph-name="quotedblright" unicode="&#x423;" horiz-adv-x="2957" 
d="M1225 -45c-174.667 0 -310 15 -406 45v524c72 -32.667 141.667 -49 209 -49c128 0 221 56 279 168l12 25l-1229 2273h733l791 -1643l598 1643h704l-1061 -2449c-49.333 -116 -113.833 -214.333 -193.5 -295s-159.667 -141.167 -240 -181.5s-145.833 -60.5 -196.5 -60.5z
" />
    <glyph glyph-name="quoteleft" unicode="&#xd4;" horiz-adv-x="3641" 
d="M2130 2626c199.333 0 400.666 -36.6689 604 -110.002c203.333 -73.333 374.666 -197 514 -371c139.333 -174 209 -399 209 -675c0 -212 -41.667 -393.167 -125 -543.5s-192.166 -270.166 -326.5 -359.499c-134.333 -89.333 -277.666 -153.666 -429.999 -192.999
s-300.833 -59 -445.5 -59v-315h-614v315c-144 0 -293.167 19.667 -447.5 59s-299.833 103.666 -436.5 192.999s-247.5 209.333 -332.5 360s-127.5 331.667 -127.5 543c0 212.667 42.5 394.334 127.5 545.001s196 270.667 333 360s282.167 153.5 435.5 192.5
s302.666 58.5 447.999 58.5v315h614v-315zM2130 2150v-1359c120 0 235.5 19.833 346.5 59.5s203.833 110.167 278.5 211.5s112 237.333 112 408s-37.333 306.834 -112 408.501s-167.5 172.334 -278.5 212.001s-226.5 59.5 -346.5 59.5zM1516 790.996l0.000976562 1359
c-196 0 -368 -51.167 -516 -153.5s-222 -277.833 -222 -526.5c0 -247.333 74.167 -422.333 222.5 -525s320.166 -154 515.499 -154z" />
    <glyph glyph-name="quoteleft" unicode="&#x424;" horiz-adv-x="3641" 
d="M2130 2626c199.333 0 400.666 -36.6689 604 -110.002c203.333 -73.333 374.666 -197 514 -371c139.333 -174 209 -399 209 -675c0 -212 -41.667 -393.167 -125 -543.5s-192.166 -270.166 -326.5 -359.499c-134.333 -89.333 -277.666 -153.666 -429.999 -192.999
s-300.833 -59 -445.5 -59v-315h-614v315c-144 0 -293.167 19.667 -447.5 59s-299.833 103.666 -436.5 192.999s-247.5 209.333 -332.5 360s-127.5 331.667 -127.5 543c0 212.667 42.5 394.334 127.5 545.001s196 270.667 333 360s282.167 153.5 435.5 192.5
s302.666 58.5 447.999 58.5v315h614v-315zM2130 2150v-1359c120 0 235.5 19.833 346.5 59.5s203.833 110.167 278.5 211.5s112 237.333 112 408s-37.333 306.834 -112 408.501s-167.5 172.334 -278.5 212.001s-226.5 59.5 -346.5 59.5zM1516 790.996l0.000976562 1359
c-196 0 -368 -51.167 -516 -153.5s-222 -277.833 -222 -526.5c0 -247.333 74.167 -422.333 222.5 -525s320.166 -154 515.499 -154z" />
    <glyph glyph-name="quoteright" unicode="&#xd5;" horiz-adv-x="2732" 
d="M2675 0h-750l-557 1004l-594 -1004h-717l951 1503l-897 1438h733l524 -950l537 950h708l-897 -1413z" />
    <glyph glyph-name="quoteright" unicode="&#x425;" horiz-adv-x="2732" 
d="M2675 0h-750l-557 1004l-594 -1004h-717l951 1503l-897 1438h733l524 -950l537 950h708l-897 -1413z" />
    <glyph glyph-name="divide" unicode="&#xd6;" horiz-adv-x="2957" 
d="M2380 0h-2089v2941h614v-2421h1147v2421h614v-2421h287v-1069h-573v549z" />
    <glyph glyph-name="divide" unicode="&#x426;" horiz-adv-x="2957" 
d="M2380 0h-2089v2941h614v-2421h1147v2421h614v-2421h287v-1069h-573v549z" />
    <glyph glyph-name="lozenge" unicode="&#xd7;" horiz-adv-x="2957" 
d="M291 1991v950h614v-950c0 -134 40.667 -232.333 122 -295s188.333 -94 321 -94c112 0 231.833 20.5 359.5 61.5s242.5 95.5 344.5 163.5v1114h614v-2941h-614v1319c-291.333 -164 -585 -246 -881 -246c-258.667 0 -470 74.5 -634 223.5s-246 380.5 -246 694.5z" />
    <glyph glyph-name="lozenge" unicode="&#x427;" horiz-adv-x="2957" 
d="M291 1991v950h614v-950c0 -134 40.667 -232.333 122 -295s188.333 -94 321 -94c112 0 231.833 20.5 359.5 61.5s242.5 95.5 344.5 163.5v1114h614v-2941h-614v1319c-291.333 -164 -585 -246 -881 -246c-258.667 0 -470 74.5 -634 223.5s-246 380.5 -246 694.5z" />
    <glyph glyph-name="ydieresis" unicode="&#xd8;" horiz-adv-x="3641" 
d="M1516 520v2421h614v-2421h614v2421h615v-2941h-3072v2941h614v-2421h615z" />
    <glyph glyph-name="ydieresis" unicode="&#x428;" horiz-adv-x="3641" 
d="M1516 520v2421h614v-2421h614v2421h615v-2941h-3072v2941h614v-2421h615z" />
    <glyph glyph-name="Ydieresis" unicode="&#xd9;" horiz-adv-x="3641" 
d="M3072 0h-2785v2941h614v-2421h615v2421h614v-2421h614v2421h615v-2421h286v-1069h-573v549z" />
    <glyph glyph-name="Ydieresis" unicode="&#x429;" horiz-adv-x="3641" 
d="M3072 0h-2785v2941h614v-2421h615v2421h614v-2421h614v2421h615v-2421h286v-1069h-573v549z" />
    <glyph glyph-name="fraction" unicode="&#xda;" horiz-adv-x="2957" 
d="M1151 1880l704 -0.000976562c240 0 430 -54.833 570 -164.5s236.333 -236.5 289 -380.5s79 -275 79 -393c0 -190.667 -36.5 -357.167 -109.5 -499.5s-178.333 -251.666 -316 -327.999s-300.167 -114.5 -487.5 -114.5h-1343v2425h-496v516h1110v-1061zM1151 1372
l0.000976562 -864.001h487c190.667 0 328.5 31.833 413.5 95.5s127.5 166.834 127.5 309.501c0 120 -27.333 226.5 -82 319.5s-180.334 139.5 -377.001 139.5h-569z" />
    <glyph glyph-name="fraction" unicode="&#x42a;" horiz-adv-x="2957" 
d="M1151 1880l704 -0.000976562c240 0 430 -54.833 570 -164.5s236.333 -236.5 289 -380.5s79 -275 79 -393c0 -190.667 -36.5 -357.167 -109.5 -499.5s-178.333 -251.666 -316 -327.999s-300.167 -114.5 -487.5 -114.5h-1343v2425h-496v516h1110v-1061zM1151 1372
l0.000976562 -864.001h487c190.667 0 328.5 31.833 413.5 95.5s127.5 166.834 127.5 309.501c0 120 -27.333 226.5 -82 319.5s-180.334 139.5 -377.001 139.5h-569z" />
    <glyph glyph-name="currency" unicode="&#xdb;" horiz-adv-x="3867" 
d="M926 1880l704 -0.000976562c240 0 430 -54.833 570 -164.5s236.333 -236.5 289 -380.5s79 -275 79 -393c0 -190.667 -36.5 -357.167 -109.5 -499.5s-178.333 -251.666 -316 -327.999s-300.167 -114.5 -487.5 -114.5h-1344v2941h615v-1061zM3555 -0.000976562h-614v2941
h614v-2941zM926 1372l0.000976562 -864.001h487c190.667 0 328.5 31.833 413.5 95.5s127.5 166.834 127.5 309.501c0 120 -27.333 226.5 -82 319.5s-180.334 139.5 -377.001 139.5h-569z" />
    <glyph glyph-name="currency" unicode="&#x42b;" horiz-adv-x="3867" 
d="M926 1880l704 -0.000976562c240 0 430 -54.833 570 -164.5s236.333 -236.5 289 -380.5s79 -275 79 -393c0 -190.667 -36.5 -357.167 -109.5 -499.5s-178.333 -251.666 -316 -327.999s-300.167 -114.5 -487.5 -114.5h-1344v2941h615v-1061zM3555 -0.000976562h-614v2941
h614v-2941zM926 1372l0.000976562 -864.001h487c190.667 0 328.5 31.833 413.5 95.5s127.5 166.834 127.5 309.501c0 120 -27.333 226.5 -82 319.5s-180.334 139.5 -377.001 139.5h-569z" />
    <glyph glyph-name="guilsinglleft" unicode="&#xdc;" horiz-adv-x="2732" 
d="M926 1880l704 -0.000976562c240 0 430 -54.833 570 -164.5s236.333 -236.5 289 -380.5s79 -275 79 -393c0 -190.667 -36.5 -357.167 -109.5 -499.5s-178.333 -251.666 -316 -327.999s-300.167 -114.5 -487.5 -114.5h-1344v2941h615v-1061zM926 1372l0.000976562 -864.001
h487c190.667 0 328.5 31.833 413.5 95.5s127.5 166.834 127.5 309.501c0 120 -27.333 226.5 -82 319.5s-180.334 139.5 -377.001 139.5h-569z" />
    <glyph glyph-name="guilsinglleft" unicode="&#x42c;" horiz-adv-x="2732" 
d="M926 1880l704 -0.000976562c240 0 430 -54.833 570 -164.5s236.333 -236.5 289 -380.5s79 -275 79 -393c0 -190.667 -36.5 -357.167 -109.5 -499.5s-178.333 -251.666 -316 -327.999s-300.167 -114.5 -487.5 -114.5h-1344v2941h615v-1061zM926 1372l0.000976562 -864.001
h487c190.667 0 328.5 31.833 413.5 95.5s127.5 166.834 127.5 309.501c0 120 -27.333 226.5 -82 319.5s-180.334 139.5 -377.001 139.5h-569z" />
    <glyph glyph-name="guilsinglright" unicode="&#xdd;" horiz-adv-x="2957" 
d="M2126 1802c-31.333 166.667 -84.999 301.333 -160.999 404s-160.833 175 -254.5 217s-187.167 63 -280.5 63c-220.667 0 -374.334 -48.833 -461.001 -146.5s-150.334 -218.167 -191.001 -361.5h-614c10 118.667 41.333 237.834 94 357.5
c52.667 119.667 130.167 231.5 232.5 335.5s233.166 188 392.499 252s343 96 551 96c256.667 0 487.334 -59 692.001 -177s365.667 -293.833 483 -527.5s176 -516.5 176 -848.5c0 -328 -56.667 -608.5 -170 -841.5s-271.333 -408.333 -474 -526s-435.667 -176.5 -699 -176.5
c-239.333 0 -447.5 45.167 -624.5 135.5s-319.667 217 -428 380s-183.5 353.167 -225.5 570.5h614c24.667 -120 66.5 -221.167 125.5 -303.5s133 -144.5 222 -186.5s190.5 -63 304.5 -63c218.667 0 387.334 76.5 506.001 229.5s190 352.167 214 597.5h-1155v520h1131z" />
    <glyph glyph-name="guilsinglright" unicode="&#x42d;" horiz-adv-x="2957" 
d="M2126 1802c-31.333 166.667 -84.999 301.333 -160.999 404s-160.833 175 -254.5 217s-187.167 63 -280.5 63c-220.667 0 -374.334 -48.833 -461.001 -146.5s-150.334 -218.167 -191.001 -361.5h-614c10 118.667 41.333 237.834 94 357.5
c52.667 119.667 130.167 231.5 232.5 335.5s233.166 188 392.499 252s343 96 551 96c256.667 0 487.334 -59 692.001 -177s365.667 -293.833 483 -527.5s176 -516.5 176 -848.5c0 -328 -56.667 -608.5 -170 -841.5s-271.333 -408.333 -474 -526s-435.667 -176.5 -699 -176.5
c-239.333 0 -447.5 45.167 -624.5 135.5s-319.667 217 -428 380s-183.5 353.167 -225.5 570.5h614c24.667 -120 66.5 -221.167 125.5 -303.5s133 -144.5 222 -186.5s190.5 -63 304.5 -63c218.667 0 387.334 76.5 506.001 229.5s190 352.167 214 597.5h-1155v520h1131z" />
    <glyph glyph-name="fi" unicode="&#xde;" horiz-adv-x="4096" 
d="M1331 1319l-426.001 -0.00195312v-1319h-614v2941h614v-1114h447c33.333 244.667 101 448.167 203 610.5s217.333 284.666 346 367c128.667 82.333 255.834 138.666 381.501 169c125.667 30.333 238.5 45.5 338.5 45.5c117.333 0 245.333 -18.833 384 -56.5
s278.167 -110.167 418.5 -217.5s257.5 -266.166 351.5 -476.499s141 -476.5 141 -798.5c0 -321.333 -47 -587.166 -141 -797.499s-211.667 -369.166 -353 -476.499s-281.666 -179.833 -420.999 -217.5s-266 -56.5 -380 -56.5c-108.667 0 -229.667 17.167 -363 51.5
s-268.333 100.166 -405 197.499s-253.834 241 -351.501 431s-154.5 429 -170.5 717zM2621 441.998c76 0 152.834 16.166 230.501 48.499s150.834 87.833 219.5 166.5c68.667 78.667 124.167 184.834 166.5 318.501s63.5 298.5 63.5 494.5c0 196.667 -21.167 362 -63.5 496
s-97.833 240 -166.5 318s-141.834 133.333 -219.501 166s-154.5 49 -230.5 49c-75.333 0 -152 -16.5 -230 -49.5s-150.833 -87.833 -218.5 -164.5s-123 -183.5 -166 -320.5s-64.5 -301.833 -64.5 -494.5c0 -192 21.5 -356.333 64.5 -493s98.333 -243.667 166 -321
s140.5 -132.333 218.5 -165s154.667 -49 230 -49z" />
    <glyph glyph-name="fi" unicode="&#x42e;" horiz-adv-x="4096" 
d="M1331 1319l-426.001 -0.00195312v-1319h-614v2941h614v-1114h447c33.333 244.667 101 448.167 203 610.5s217.333 284.666 346 367c128.667 82.333 255.834 138.666 381.501 169c125.667 30.333 238.5 45.5 338.5 45.5c117.333 0 245.333 -18.833 384 -56.5
s278.167 -110.167 418.5 -217.5s257.5 -266.166 351.5 -476.499s141 -476.5 141 -798.5c0 -321.333 -47 -587.166 -141 -797.499s-211.667 -369.166 -353 -476.499s-281.666 -179.833 -420.999 -217.5s-266 -56.5 -380 -56.5c-108.667 0 -229.667 17.167 -363 51.5
s-268.333 100.166 -405 197.499s-253.834 241 -351.501 431s-154.5 429 -170.5 717zM2621 441.998c76 0 152.834 16.166 230.501 48.499s150.834 87.833 219.5 166.5c68.667 78.667 124.167 184.834 166.5 318.501s63.5 298.5 63.5 494.5c0 196.667 -21.167 362 -63.5 496
s-97.833 240 -166.5 318s-141.834 133.333 -219.501 166s-154.5 49 -230.5 49c-75.333 0 -152 -16.5 -230 -49.5s-150.833 -87.833 -218.5 -164.5s-123 -183.5 -166 -320.5s-64.5 -301.833 -64.5 -494.5c0 -192 21.5 -356.333 64.5 -493s98.333 -243.667 166 -321
s140.5 -132.333 218.5 -165s154.667 -49 230 -49z" />
    <glyph glyph-name="fl" unicode="&#xdf;" horiz-adv-x="2957" 
d="M2646 0h-602v1151h-397l-750 -1151h-754l832 1151c-201.333 45.333 -375.333 147 -522 305s-220 355.333 -220 592c0 156 38.167 302.5 114.5 439.5s184.833 246.833 325.5 329.5s302.667 124 486 124h1487v-2941zM2044 1647v786h-766
c-97.333 0 -178.333 -18.833 -243 -56.5s-112 -84.834 -142 -141.501s-45 -113.667 -45 -171c0 -127.333 40.5 -228.666 121.5 -303.999s198.833 -113 353.5 -113h721z" />
    <glyph glyph-name="fl" unicode="&#x42f;" horiz-adv-x="2957" 
d="M2646 0h-602v1151h-397l-750 -1151h-754l832 1151c-201.333 45.333 -375.333 147 -522 305s-220 355.333 -220 592c0 156 38.167 302.5 114.5 439.5s184.833 246.833 325.5 329.5s302.667 124 486 124h1487v-2941zM2044 1647v786h-766
c-97.333 0 -178.333 -18.833 -243 -56.5s-112 -84.834 -142 -141.501s-45 -113.667 -45 -171c0 -127.333 40.5 -228.666 121.5 -303.999s198.833 -113 353.5 -113h721z" />
    <glyph glyph-name="daggerdbl" unicode="&#xe0;" 
d="M2036 426c0 -118.667 10.834 -201.171 32.501 -247.504s53.167 -77.166 94.5 -92.499v-86h-619c-26.667 82 -44.334 168 -53.001 258c-92.667 -95.333 -190.334 -171.666 -293.001 -228.999s-240 -86 -412 -86c-115.333 0 -223.5 22.667 -324.5 68
s-182.667 115.666 -245 210.999s-93.5 214 -93.5 356c0 136.667 27 254.334 81 353.001s128 175.834 222 231.501s204.667 92.834 332 111.501l516 78c134 18 201 75.333 201 172c0 106 -36 174.833 -108 206.5s-161.667 47.5 -269 47.5
c-126.667 0 -214.167 -28.667 -262.5 -86s-78.5 -129.666 -90.5 -216.999h-552c20.667 209.333 77.834 369.666 171.501 480.999s207 185.833 340 223.5s287.167 56.5 462.5 56.5c129.333 0 259 -17 389 -51s242.5 -98 337.5 -192s142.5 -223 142.5 -387v-1180zM1475 1061
c-62.667 -48.667 -192.667 -88.333 -390 -119c-82 -14 -150.667 -31.667 -206 -53s-99.666 -53.666 -132.999 -96.999s-50 -102.666 -50 -177.999c0 -90 27.667 -156.167 83 -198.5s116.666 -63.5 183.999 -63.5c86 0 168.333 17.667 247 53s142.5 85.666 191.5 150.999
s73.5 140.666 73.5 225.999v279z" />
    <glyph glyph-name="daggerdbl" unicode="&#x430;" 
d="M2036 426c0 -118.667 10.834 -201.171 32.501 -247.504s53.167 -77.166 94.5 -92.499v-86h-619c-26.667 82 -44.334 168 -53.001 258c-92.667 -95.333 -190.334 -171.666 -293.001 -228.999s-240 -86 -412 -86c-115.333 0 -223.5 22.667 -324.5 68
s-182.667 115.666 -245 210.999s-93.5 214 -93.5 356c0 136.667 27 254.334 81 353.001s128 175.834 222 231.501s204.667 92.834 332 111.501l516 78c134 18 201 75.333 201 172c0 106 -36 174.833 -108 206.5s-161.667 47.5 -269 47.5
c-126.667 0 -214.167 -28.667 -262.5 -86s-78.5 -129.666 -90.5 -216.999h-552c20.667 209.333 77.834 369.666 171.501 480.999s207 185.833 340 223.5s287.167 56.5 462.5 56.5c129.333 0 259 -17 389 -51s242.5 -98 337.5 -192s142.5 -223 142.5 -387v-1180zM1475 1061
c-62.667 -48.667 -192.667 -88.333 -390 -119c-82 -14 -150.667 -31.667 -206 -53s-99.666 -53.666 -132.999 -96.999s-50 -102.666 -50 -177.999c0 -90 27.667 -156.167 83 -198.5s116.666 -63.5 183.999 -63.5c86 0 168.333 17.667 247 53s142.5 85.666 191.5 150.999
s73.5 140.666 73.5 225.999v279z" />
    <glyph glyph-name="periodcentered" unicode="&#xe1;" horiz-adv-x="2503" 
d="M602 2826c108 93.333 238.166 153.502 390.499 180.502s351.166 40.5 596.499 40.5c78.667 0 129.834 12.833 153.501 38.5s35.5 47.167 35.5 64.5h458c0 -51.333 -7.83301 -110.833 -23.5 -178.5s-51.667 -138.167 -108 -211.5s-137.833 -129 -244.5 -167
c-74 -26.667 -182 -46.167 -324 -58.5s-265 -24.333 -369 -36s-188.667 -36.167 -254 -73.5c-96 -56 -161.833 -121.333 -197.5 -196s-72.167 -177.334 -109.5 -308.001c68 87.333 162.167 161.666 282.5 222.999s241.833 92 364.5 92c151.333 0 293.5 -23.167 426.5 -69.5
s251.333 -117 355 -212s185 -215.167 244 -360.5s88.5 -313.333 88.5 -504c0 -190 -29.5 -357.667 -88.5 -503s-140 -265.5 -243 -360.5s-221.833 -166 -356.5 -213s-276.667 -70.5 -426 -70.5c-148 0 -288.833 23.5 -422.5 70.5s-251.667 118 -354 213
s-183.166 214.833 -242.499 359.5s-91 312.667 -95 504v127c0 436 39 780.333 117 1033s193.333 444.667 346 576zM1253 1753c-197.333 0 -334 -65.833 -410 -197.5s-114 -286.834 -114 -465.501s38 -334 114 -466s212.667 -198 410 -198c198 0 335 65.667 411 197
s114 287 114 467c0 180.667 -38 336.334 -114 467.001s-213 196 -411 196z" />
    <glyph glyph-name="periodcentered" unicode="&#x431;" horiz-adv-x="2503" 
d="M602 2826c108 93.333 238.166 153.502 390.499 180.502s351.166 40.5 596.499 40.5c78.667 0 129.834 12.833 153.501 38.5s35.5 47.167 35.5 64.5h458c0 -51.333 -7.83301 -110.833 -23.5 -178.5s-51.667 -138.167 -108 -211.5s-137.833 -129 -244.5 -167
c-74 -26.667 -182 -46.167 -324 -58.5s-265 -24.333 -369 -36s-188.667 -36.167 -254 -73.5c-96 -56 -161.833 -121.333 -197.5 -196s-72.167 -177.334 -109.5 -308.001c68 87.333 162.167 161.666 282.5 222.999s241.833 92 364.5 92c151.333 0 293.5 -23.167 426.5 -69.5
s251.333 -117 355 -212s185 -215.167 244 -360.5s88.5 -313.333 88.5 -504c0 -190 -29.5 -357.667 -88.5 -503s-140 -265.5 -243 -360.5s-221.833 -166 -356.5 -213s-276.667 -70.5 -426 -70.5c-148 0 -288.833 23.5 -422.5 70.5s-251.667 118 -354 213
s-183.166 214.833 -242.499 359.5s-91 312.667 -95 504v127c0 436 39 780.333 117 1033s193.333 444.667 346 576zM1253 1753c-197.333 0 -334 -65.833 -410 -197.5s-114 -286.834 -114 -465.501s38 -334 114 -466s212.667 -198 410 -198c198 0 335 65.667 411 197
s114 287 114 467c0 180.667 -38 336.334 -114 467.001s-213 196 -411 196z" />
    <glyph glyph-name="quotesinglbase" unicode="&#xe2;" 
d="M270 0l-0.00195312 2179h897c595.333 0 893 -188.333 893 -565c0 -132 -43.833 -240.5 -131.5 -325.5s-192.5 -136.167 -314.5 -153.5c84.667 -14 166.334 -40 245.001 -78s144.834 -94.667 198.501 -170s80.5 -170.333 80.5 -285
c0 -206.667 -83.5 -359.334 -250.5 -458.001s-383.833 -148 -650.5 -148zM843.998 926.001v-549h381c105.333 0 188.333 23 249 69s91 110.333 91 193c0 94.667 -29.833 166.167 -89.5 214.5s-143.167 72.5 -250.5 72.5h-381zM843.998 1802v-512h332
c98.667 0 177.167 22.667 235.5 68s87.5 110 87.5 194c0 166.667 -107.667 250 -323 250h-332z" />
    <glyph glyph-name="quotesinglbase" unicode="&#x432;" 
d="M270 0l-0.00195312 2179h897c595.333 0 893 -188.333 893 -565c0 -132 -43.833 -240.5 -131.5 -325.5s-192.5 -136.167 -314.5 -153.5c84.667 -14 166.334 -40 245.001 -78s144.834 -94.667 198.501 -170s80.5 -170.333 80.5 -285
c0 -206.667 -83.5 -359.334 -250.5 -458.001s-383.833 -148 -650.5 -148zM843.998 926.001v-549h381c105.333 0 188.333 23 249 69s91 110.333 91 193c0 94.667 -29.833 166.167 -89.5 214.5s-143.167 72.5 -250.5 72.5h-381zM843.998 1802v-512h332
c98.667 0 177.167 22.667 235.5 68s87.5 110 87.5 194c0 166.667 -107.667 250 -323 250h-332z" />
    <glyph glyph-name="quotedblbase" unicode="&#xe3;" horiz-adv-x="1819" 
d="M1749 1720h-905v-1720h-574v2179h1479v-459z" />
    <glyph glyph-name="quotedblbase" unicode="&#x433;" horiz-adv-x="1819" 
d="M1749 1720h-905v-1720h-574v2179h1479v-459z" />
    <glyph glyph-name="perthousand" unicode="&#xe4;" 
d="M324 1135l-0.000976562 1044h1683v-1724h258v-1004h-532v549h-1205v-549h-532v1004c72.667 0 132.834 18.833 180.501 56.5s84.167 106.834 109.5 207.501s38 239.334 38 416.001zM1434 454.998v1265h-578v-598c0 -329.333 -52 -551.666 -156 -666.999h734z" />
    <glyph glyph-name="perthousand" unicode="&#x434;" 
d="M324 1135l-0.000976562 1044h1683v-1724h258v-1004h-532v549h-1205v-549h-532v1004c72.667 0 132.834 18.833 180.501 56.5s84.167 106.834 109.5 207.501s38 239.334 38 416.001zM1434 454.998v1265h-578v-598c0 -329.333 -52 -551.666 -156 -666.999h734z" />
    <glyph glyph-name="Acircumflex" unicode="&#xe5;" 
d="M2154 639c-69.333 -242 -193.169 -418.501 -371.502 -529.501s-373.833 -166.5 -586.5 -166.5c-158.667 0 -303.5 20.833 -434.5 62.5s-245.333 109 -343 202s-173.334 217 -227.001 372s-80.5 340.167 -80.5 555.5c0 91.333 12 195.833 36 313.5
s71.167 236.834 141.5 357.501s176.833 222.5 319.5 305.5s325 124.5 547 124.5c120.667 0 239.834 -17.5 357.501 -52.5s226.834 -96 327.501 -183s182.334 -210.5 245.001 -370.5s94 -358 94 -594v-102h-1495c8 -88.667 23.333 -169.667 46 -243s71.167 -140 145.5 -200
s181.166 -90 320.499 -90c84 0 161.333 21.333 232 64s116.334 100.667 137.001 174h589zM1589 1307c-14.667 160.667 -64.832 277.167 -150.499 349.5s-182.834 108.5 -291.501 108.5c-262.667 0 -411.667 -152.667 -447 -458h889z" />
    <glyph glyph-name="Acircumflex" unicode="&#x435;" 
d="M2154 639c-69.333 -242 -193.169 -418.501 -371.502 -529.501s-373.833 -166.5 -586.5 -166.5c-158.667 0 -303.5 20.833 -434.5 62.5s-245.333 109 -343 202s-173.334 217 -227.001 372s-80.5 340.167 -80.5 555.5c0 91.333 12 195.833 36 313.5
s71.167 236.834 141.5 357.501s176.833 222.5 319.5 305.5s325 124.5 547 124.5c120.667 0 239.834 -17.5 357.501 -52.5s226.834 -96 327.501 -183s182.334 -210.5 245.001 -370.5s94 -358 94 -594v-102h-1495c8 -88.667 23.333 -169.667 46 -243s71.167 -140 145.5 -200
s181.166 -90 320.499 -90c84 0 161.333 21.333 232 64s116.334 100.667 137.001 174h589zM1589 1307c-14.667 160.667 -64.832 277.167 -150.499 349.5s-182.834 108.5 -291.501 108.5c-262.667 0 -411.667 -152.667 -447 -458h889z" />
    <glyph glyph-name="Ecircumflex" unicode="&#xe6;" horiz-adv-x="3187" 
d="M1307 0v688l-168 201l-488 -889h-688l791 1335l-770 844h684l639 -807v807h569v-807l639 807h684l-770 -844l790 -1335h-688l-487 889l-168 -201v-688h-569z" />
    <glyph glyph-name="Ecircumflex" unicode="&#x436;" horiz-adv-x="3187" 
d="M1307 0v688l-168 201l-488 -889h-688l791 1335l-770 844h684l639 -807v807h569v-807l639 807h684l-770 -844l790 -1335h-688l-487 889l-168 -201v-688h-569z" />
    <glyph glyph-name="Aacute" unicode="&#xe7;" 
d="M1552 1135c382.667 -48 573.998 -209.331 573.998 -483.998c0 -179.333 -52 -321.833 -156 -427.5s-229 -178.834 -375 -219.501s-287.333 -61 -424 -61c-287.333 0 -532 58.667 -734 176s-306.667 309.666 -314 576.999h590c0 -212.667 158.333 -319 475 -319
c129.333 0 222.333 30.667 279 92s85 122 85 182c0 87.333 -37.5 155 -112.5 203s-167.167 72 -276.5 72h-401v364h397c96 0 174.667 21.833 236 65.5s92 106.5 92 188.5c0 172 -117.333 258 -352 258c-138.667 0 -233.667 -25.333 -285 -76s-84.666 -120.667 -99.999 -210
h-562c35.333 480 361.666 720 978.999 720c212.667 0 384.834 -34.167 516.501 -102.5s225.334 -154.833 281.001 -259.5s83.5 -214.667 83.5 -330c0 -214.667 -165.333 -351 -496 -409z" />
    <glyph glyph-name="Aacute" unicode="&#x437;" 
d="M1552 1135c382.667 -48 573.998 -209.331 573.998 -483.998c0 -179.333 -52 -321.833 -156 -427.5s-229 -178.834 -375 -219.501s-287.333 -61 -424 -61c-287.333 0 -532 58.667 -734 176s-306.667 309.666 -314 576.999h590c0 -212.667 158.333 -319 475 -319
c129.333 0 222.333 30.667 279 92s85 122 85 182c0 87.333 -37.5 155 -112.5 203s-167.167 72 -276.5 72h-401v364h397c96 0 174.667 21.833 236 65.5s92 106.5 92 188.5c0 172 -117.333 258 -352 258c-138.667 0 -233.667 -25.333 -285 -76s-84.666 -120.667 -99.999 -210
h-562c35.333 480 361.666 720 978.999 720c212.667 0 384.834 -34.167 516.501 -102.5s225.334 -154.833 281.001 -259.5s83.5 -214.667 83.5 -330c0 -214.667 -165.333 -351 -496 -409z" />
    <glyph glyph-name="Edieresis" unicode="&#xe8;" horiz-adv-x="2503" 
d="M2232 0h-573v1311l-774 -1311h-615v2179h574v-1311l774 1311h614v-2179z" />
    <glyph glyph-name="Edieresis" unicode="&#x438;" horiz-adv-x="2503" 
d="M2232 0h-573v1311l-774 -1311h-615v2179h574v-1311l774 1311h614v-2179z" />
    <glyph glyph-name="Egrave" unicode="&#xe9;" horiz-adv-x="2503" 
d="M2232 0h-573v1311l-774 -1311h-615v2179h574v-1311l774 1311h614v-2179zM1978 3072c-12.667 -146 -70.998 -282.167 -174.998 -408.5s-288.667 -189.5 -554 -189.5c-236.667 0 -401.834 65.167 -495.501 195.5s-145.5 264.5 -155.5 402.5h270
c17.333 -83.333 51.833 -152 103.5 -206s152.5 -81 302.5 -81c121.333 0 219.666 18 294.999 54s123 113.667 143 233h266z" />
    <glyph glyph-name="Egrave" unicode="&#x439;" horiz-adv-x="2503" 
d="M2232 0h-573v1311l-774 -1311h-615v2179h574v-1311l774 1311h614v-2179zM1978 3072c-12.667 -146 -70.998 -282.167 -174.998 -408.5s-288.667 -189.5 -554 -189.5c-236.667 0 -401.834 65.167 -495.501 195.5s-145.5 264.5 -155.5 402.5h270
c17.333 -83.333 51.833 -152 103.5 -206s152.5 -81 302.5 -81c121.333 0 219.666 18 294.999 54s123 113.667 143 233h266z" />
    <glyph glyph-name="Iacute" unicode="&#xea;" 
d="M844 0h-574v2179h574v-827l721 827h716l-782 -844l815 -1335h-696l-537 934l-237 -246v-688z" />
    <glyph glyph-name="Iacute" unicode="&#x43a;" 
d="M844 0h-574v2179h574v-827l721 827h716l-782 -844l815 -1335h-696l-537 934l-237 -246v-688z" />
    <glyph glyph-name="Icircumflex" unicode="&#xeb;" 
d="M856 1720l-0.000976562 -946.002c0 -201.333 -35.667 -363.166 -107 -485.499s-167.166 -209.166 -287.499 -260.499s-257.833 -77 -412.5 -77v459c183.333 0 275 121.333 275 364v1405h1683v-2179h-573v1720h-578z" />
    <glyph glyph-name="Icircumflex" unicode="&#x43b;" 
d="M856 1720l-0.000976562 -946.002c0 -201.333 -35.667 -363.166 -107 -485.499s-167.166 -209.166 -287.499 -260.499s-257.833 -77 -412.5 -77v459c183.333 0 275 121.333 275 364v1405h1683v-2179h-573v1720h-578z" />
    <glyph glyph-name="Idieresis" unicode="&#xec;" horiz-adv-x="3187" 
d="M2384 1487l-549 -1487h-483l-549 1487h-17c2.66699 -23.333 6.16699 -58.166 10.5 -104.499s6.5 -97.5 6.5 -153.5v-1229h-533v2179h783l532 -1483h17l532 1483h782v-2179h-532v1229c0 49.333 2 98.833 6 148.5s7.33301 86.167 10 109.5h-16z" />
    <glyph glyph-name="Idieresis" unicode="&#x43c;" horiz-adv-x="3187" 
d="M2384 1487l-549 -1487h-483l-549 1487h-17c2.66699 -23.333 6.16699 -58.166 10.5 -104.499s6.5 -97.5 6.5 -153.5v-1229h-533v2179h783l532 -1483h17l532 1483h782v-2179h-532v1229c0 49.333 2 98.833 6 148.5s7.33301 86.167 10 109.5h-16z" />
    <glyph glyph-name="Igrave" unicode="&#xed;" horiz-adv-x="2503" 
d="M2232 0h-573v860h-815v-860h-574v2179h574v-860h815v860h573v-2179z" />
    <glyph glyph-name="Igrave" unicode="&#x43d;" horiz-adv-x="2503" 
d="M2232 0h-573v860h-815v-860h-574v2179h574v-860h815v860h573v-2179z" />
    <glyph glyph-name="Oacute" unicode="&#xee;" horiz-adv-x="2503" 
d="M1253 -57c-201.333 0 -386.671 42.165 -556.004 126.498s-304.666 212.5 -405.999 384.5s-152 384 -152 636c0 190.667 29.833 358.834 89.5 504.501s141.334 265.834 245.001 360.501s221.834 165.167 354.501 211.5s274.334 69.5 425.001 69.5
c151.333 0 293.5 -23.167 426.5 -69.5s251.333 -117 355 -212s185 -215.167 244 -360.5s88.5 -313.333 88.5 -504c0 -190 -29.5 -357.667 -88.5 -503s-140 -265.5 -243 -360.5s-221.833 -166 -356.5 -213s-276.667 -70.5 -426 -70.5zM1253 1753
c-197.333 0 -334 -65.833 -410 -197.5s-114 -286.834 -114 -465.501s38 -334 114 -466s212.667 -198 410 -198c198 0 335 65.667 411 197s114 287 114 467c0 180.667 -38 336.334 -114 467.001s-213 196 -411 196z" />
    <glyph glyph-name="Oacute" unicode="&#x43e;" horiz-adv-x="2503" 
d="M1253 -57c-201.333 0 -386.671 42.165 -556.004 126.498s-304.666 212.5 -405.999 384.5s-152 384 -152 636c0 190.667 29.833 358.834 89.5 504.501s141.334 265.834 245.001 360.501s221.834 165.167 354.501 211.5s274.334 69.5 425.001 69.5
c151.333 0 293.5 -23.167 426.5 -69.5s251.333 -117 355 -212s185 -215.167 244 -360.5s88.5 -313.333 88.5 -504c0 -190 -29.5 -357.667 -88.5 -503s-140 -265.5 -243 -360.5s-221.833 -166 -356.5 -213s-276.667 -70.5 -426 -70.5zM1253 1753
c-197.333 0 -334 -65.833 -410 -197.5s-114 -286.834 -114 -465.501s38 -334 114 -466s212.667 -198 410 -198c198 0 335 65.667 411 197s114 287 114 467c0 180.667 -38 336.334 -114 467.001s-213 196 -411 196z" />
    <glyph glyph-name="Ocircumflex" unicode="&#xef;" horiz-adv-x="2503" 
d="M2232 0h-573v1716h-815v-1716h-574v2179h1962v-2179z" />
    <glyph glyph-name="Ocircumflex" unicode="&#x43f;" horiz-adv-x="2503" 
d="M2232 0h-573v1716h-815v-1716h-574v2179h1962v-2179z" />
    <glyph glyph-name="apple" unicode="&#xf0;" horiz-adv-x="2503" 
d="M803 1864h8c70.667 112.667 154.167 202.834 250.5 270.501s229.833 101.5 400.5 101.5c122 0 237.333 -23.333 346 -70s205.167 -117 289.5 -211s150.333 -211.5 198 -352.5s71.5 -303.833 71.5 -488.5c0 -208 -32.667 -401.333 -98 -580s-167 -321.834 -305 -429.501
s-309.333 -161.5 -514 -161.5c-279.333 0 -484 112 -614 336h-9v-1127h-573v3027h549v-315zM1307 414c113.333 0 205.332 34.668 275.999 104.001s120.834 154.166 150.501 254.499s44.5 200.5 44.5 300.5c0 192 -38.833 351.333 -116.5 478s-201.5 190 -371.5 190
c-324.667 0 -487 -233.667 -487 -701c0 -178 41.5 -326.833 124.5 -446.5s209.5 -179.5 379.5 -179.5z" />
    <glyph glyph-name="apple" unicode="&#x440;" horiz-adv-x="2503" 
d="M803 1864h8c70.667 112.667 154.167 202.834 250.5 270.501s229.833 101.5 400.5 101.5c122 0 237.333 -23.333 346 -70s205.167 -117 289.5 -211s150.333 -211.5 198 -352.5s71.5 -303.833 71.5 -488.5c0 -208 -32.667 -401.333 -98 -580s-167 -321.834 -305 -429.501
s-309.333 -161.5 -514 -161.5c-279.333 0 -484 112 -614 336h-9v-1127h-573v3027h549v-315zM1307 414c113.333 0 205.332 34.668 275.999 104.001s120.834 154.166 150.501 254.499s44.5 200.5 44.5 300.5c0 192 -38.833 351.333 -116.5 478s-201.5 190 -371.5 190
c-324.667 0 -487 -233.667 -487 -701c0 -178 41.5 -326.833 124.5 -446.5s209.5 -179.5 379.5 -179.5z" />
    <glyph glyph-name="Ograve" unicode="&#xf1;" 
d="M2142 795c-6.66699 -72.667 -25.832 -154.832 -57.499 -246.499s-84.334 -184.167 -158.001 -277.5s-175.334 -171.333 -305.001 -234s-287.834 -94 -474.501 -94c-194 0 -357.333 33 -490 99s-236.5 152.333 -311.5 259s-128.167 222.667 -159.5 348
s-47 251.666 -47 378.999c0 241.333 36.5 452.5 109.5 633.5s187.5 322 343.5 423s353.333 151.5 592 151.5c136.667 0 274.834 -24.5 414.501 -73.5s261.667 -135.833 366 -260.5s164.833 -291.667 181.5 -501h-581c-42 234.667 -169 352 -381 352
c-111.333 0 -201.166 -31.667 -269.499 -95s-116.333 -142.5 -144 -237.5s-41.5 -194.5 -41.5 -298.5c0 -118 8 -226.5 24 -325.5s56.833 -187.5 122.5 -265.5s164.167 -117 295.5 -117c87.333 0 160.5 22.667 219.5 68s102.167 98.333 129.5 159s41 112 41 154h581z" />
    <glyph glyph-name="Ograve" unicode="&#x441;" 
d="M2142 795c-6.66699 -72.667 -25.832 -154.832 -57.499 -246.499s-84.334 -184.167 -158.001 -277.5s-175.334 -171.333 -305.001 -234s-287.834 -94 -474.501 -94c-194 0 -357.333 33 -490 99s-236.5 152.333 -311.5 259s-128.167 222.667 -159.5 348
s-47 251.666 -47 378.999c0 241.333 36.5 452.5 109.5 633.5s187.5 322 343.5 423s353.333 151.5 592 151.5c136.667 0 274.834 -24.5 414.501 -73.5s261.667 -135.833 366 -260.5s164.833 -291.667 181.5 -501h-581c-42 234.667 -169 352 -381 352
c-111.333 0 -201.166 -31.667 -269.499 -95s-116.333 -142.5 -144 -237.5s-41.5 -194.5 -41.5 -298.5c0 -118 8 -226.5 24 -325.5s56.833 -187.5 122.5 -265.5s164.167 -117 295.5 -117c87.333 0 160.5 22.667 219.5 68s102.167 98.333 129.5 159s41 112 41 154h581z" />
    <glyph glyph-name="Uacute" unicode="&#xf2;" horiz-adv-x="2023" 
d="M721 0v1720h-651v459h1876v-459h-652v-1720h-573z" />
    <glyph glyph-name="Uacute" unicode="&#x442;" horiz-adv-x="2023" 
d="M721 0v1720h-651v459h1876v-459h-652v-1720h-573z" />
    <glyph glyph-name="Ucircumflex" unicode="&#xf3;" 
d="M1458 37c-72 -216 -132.333 -381.668 -181 -497.001s-100.5 -203.166 -155.5 -263.499s-120.333 -101 -196 -122s-179.5 -31.5 -311.5 -31.5c-48.667 0 -134.667 3 -258 9v458c33.333 -5.33301 70.333 -8 111 -8c118 0 204.333 20 259 60s94 129.333 118 268l-803 2269
h639l467 -1606h8l447 1606h606z" />
    <glyph glyph-name="Ucircumflex" unicode="&#x443;" 
d="M1458 37c-72 -216 -132.333 -381.668 -181 -497.001s-100.5 -203.166 -155.5 -263.499s-120.333 -101 -196 -122s-179.5 -31.5 -311.5 -31.5c-48.667 0 -134.667 3 -258 9v458c33.333 -5.33301 70.333 -8 111 -8c118 0 204.333 20 259 60s94 129.333 118 268l-803 2269
h639l467 -1606h8l447 1606h606z" />
    <glyph glyph-name="Ugrave" unicode="&#xf4;" horiz-adv-x="3412" 
d="M1421 -848l0.00292969 1127h-8l-61 -107c-24.667 -42.667 -53.834 -80.5 -87.501 -113.5s-78.834 -60.5 -135.501 -82.5s-125.667 -33 -207 -33c-276.667 0 -478.334 111 -605.001 333s-190 501.333 -190 838c0 242.667 34 448.5 102 617.5s161.5 295.333 280.5 379
s252.167 125.5 399.5 125.5c81.333 0 149.833 -10.5 205.5 -31.5s101.667 -48.5 138 -82.5s64.833 -66.5 85.5 -97.5s54 -84.5 100 -160.5h8v1077h524v-1077h8l80 127.5c31.333 49.667 66.166 92.334 104.5 128.001c38.333 35.667 85.166 64 140.5 85
c55.333 21 123.333 31.5 204 31.5c110.667 0 213.5 -23.167 308.5 -69.5s177.833 -116.166 248.5 -209.499s125.834 -210.666 165.5 -351.999c39.667 -141.333 59.5 -305 59.5 -491c0 -214 -26.333 -409 -79 -585s-138.334 -317.667 -257 -425
c-118.667 -107.333 -271.667 -161 -459 -161c-81.333 0 -150.333 11 -207 33s-101.834 49.5 -135.5 82.5c-33.667 33 -62.167 69.667 -85.5 110l-63 110.5h-8v-1127h-574zM1446 1040v131.002c0 187.333 -22.167 329.166 -66.5 425.499s-143.833 144.5 -298.5 144.5
c-138 0 -233.167 -60.667 -285.5 -182s-78.5 -283.333 -78.5 -486c0 -439.333 116 -659 348 -659c114.667 0 199.5 27.833 254.5 83.5s89.833 126.667 104.5 213s22 196.166 22 329.499zM2351 413.999c232 0 348.001 219.666 348.001 658.999c0 202.667 -26 364.667 -78 486
s-147.333 182 -286 182c-154 0 -253.333 -48.167 -298 -144.5s-67 -238.166 -67 -425.499v-131c0 -133.333 7.5 -243.333 22.5 -330s50.167 -157.667 105.5 -213s139.666 -83 252.999 -83z" />
    <glyph glyph-name="Ugrave" unicode="&#x444;" horiz-adv-x="3412" 
d="M1421 -848l0.00292969 1127h-8l-61 -107c-24.667 -42.667 -53.834 -80.5 -87.501 -113.5s-78.834 -60.5 -135.501 -82.5s-125.667 -33 -207 -33c-276.667 0 -478.334 111 -605.001 333s-190 501.333 -190 838c0 242.667 34 448.5 102 617.5s161.5 295.333 280.5 379
s252.167 125.5 399.5 125.5c81.333 0 149.833 -10.5 205.5 -31.5s101.667 -48.5 138 -82.5s64.833 -66.5 85.5 -97.5s54 -84.5 100 -160.5h8v1077h524v-1077h8l80 127.5c31.333 49.667 66.166 92.334 104.5 128.001c38.333 35.667 85.166 64 140.5 85
c55.333 21 123.333 31.5 204 31.5c110.667 0 213.5 -23.167 308.5 -69.5s177.833 -116.166 248.5 -209.499s125.834 -210.666 165.5 -351.999c39.667 -141.333 59.5 -305 59.5 -491c0 -214 -26.333 -409 -79 -585s-138.334 -317.667 -257 -425
c-118.667 -107.333 -271.667 -161 -459 -161c-81.333 0 -150.333 11 -207 33s-101.834 49.5 -135.5 82.5c-33.667 33 -62.167 69.667 -85.5 110l-63 110.5h-8v-1127h-574zM1446 1040v131.002c0 187.333 -22.167 329.166 -66.5 425.499s-143.833 144.5 -298.5 144.5
c-138 0 -233.167 -60.667 -285.5 -182s-78.5 -283.333 -78.5 -486c0 -439.333 116 -659 348 -659c114.667 0 199.5 27.833 254.5 83.5s89.833 126.667 104.5 213s22 196.166 22 329.499zM2351 413.999c232 0 348.001 219.666 348.001 658.999c0 202.667 -26 364.667 -78 486
s-147.333 182 -286 182c-154 0 -253.333 -48.167 -298 -144.5s-67 -238.166 -67 -425.499v-131c0 -133.333 7.5 -243.333 22.5 -330s50.167 -157.667 105.5 -213s139.666 -83 252.999 -83z" />
    <glyph glyph-name="dotlessi" unicode="&#xf5;" 
d="M2216 0h-709l-377 655l-376 -655h-693l742 1110l-713 1069h696l369 -635l361 635h675l-716 -1069z" />
    <glyph glyph-name="dotlessi" unicode="&#x445;" 
d="M2216 0h-709l-377 655l-376 -655h-693l742 1110l-713 1069h696l369 -635l361 635h675l-716 -1069z" />
    <glyph glyph-name="circumflex" unicode="&#xf6;" horiz-adv-x="2503" 
d="M1962 0h-1692v2175h574v-1716h815v1716h573v-1716h262v-1008h-532v549z" />
    <glyph glyph-name="circumflex" unicode="&#x446;" horiz-adv-x="2503" 
d="M1962 0h-1692v2175h574v-1716h815v1716h573v-1716h262v-1008h-532v549z" />
    <glyph glyph-name="tilde" unicode="&#xf7;" horiz-adv-x="2503" 
d="M2232 0l-573 -0.000976562v897c-57.333 -33.333 -148 -75.166 -272 -125.499s-249 -75.5 -375 -75.5c-229.333 0 -410.333 60.667 -543 182s-199 314.666 -199 579.999v721h574v-704c0 -196.667 124.333 -295 373 -295c76.667 0 159 16.833 247 50.5
s153 61.834 195 84.501v864h573v-2179z" />
    <glyph glyph-name="tilde" unicode="&#x447;" horiz-adv-x="2503" 
d="M2232 0l-573 -0.000976562v897c-57.333 -33.333 -148 -75.166 -272 -125.499s-249 -75.5 -375 -75.5c-229.333 0 -410.333 60.667 -543 182s-199 314.666 -199 579.999v721h574v-704c0 -196.667 124.333 -295 373 -295c76.667 0 159 16.833 247 50.5
s153 61.834 195 84.501v864h573v-2179z" />
    <glyph glyph-name="macron" unicode="&#xf8;" horiz-adv-x="3412" 
d="M1417 459v1720h574v-1720h577v1716h574v-2175h-2872v2175h574v-1716h573z" />
    <glyph glyph-name="macron" unicode="&#x448;" horiz-adv-x="3412" 
d="M1417 459v1720h574v-1720h577v1716h574v-2175h-2872v2175h574v-1716h573z" />
    <glyph glyph-name="breve" unicode="&#xf9;" horiz-adv-x="3412" 
d="M2871 0h-2601v2175h574v-1716h573v1720h574v-1720h577v1716h574v-1716h262v-1008h-533v549z" />
    <glyph glyph-name="breve" unicode="&#x449;" horiz-adv-x="3412" 
d="M2871 0h-2601v2175h574v-1716h573v1720h574v-1720h577v1716h574v-1716h262v-1008h-533v549z" />
    <glyph glyph-name="dotaccent" unicode="&#xfa;" horiz-adv-x="2503" 
d="M1061 2179v-847.999h344c608.667 0 913 -230.667 913 -692c0 -208.667 -86.5 -367.334 -259.5 -476.001s-390.833 -163 -653.5 -163h-918v1720h-450v459h1024zM1061 926.001v-549h332c106.667 0 192 23.167 256 69.5s96 110.5 96 192.5c0 94 -31.5 165.333 -94.5 214
s-148.833 73 -257.5 73h-332z" />
    <glyph glyph-name="dotaccent" unicode="&#x44a;" horiz-adv-x="2503" 
d="M1061 2179v-847.999h344c608.667 0 913 -230.667 913 -692c0 -208.667 -86.5 -367.334 -259.5 -476.001s-390.833 -163 -653.5 -163h-918v1720h-450v459h1024zM1061 926.001v-549h332c106.667 0 192 23.167 256 69.5s96 110.5 96 192.5c0 94 -31.5 165.333 -94.5 214
s-148.833 73 -257.5 73h-332z" />
    <glyph glyph-name="ring" unicode="&#xfb;" horiz-adv-x="3187" 
d="M844 1331l315 0.000976562c609.333 0 914 -230.667 914 -692c0 -208.667 -86.5 -367.334 -259.5 -476.001s-391.167 -163 -654.5 -163h-889v2179h574v-848zM2916 0.000976562h-573v2179h573v-2179zM844 926.001v-549h303c106.667 0 192 23.167 256 69.5
s96 110.5 96 192.5c0 94 -31.5 165.333 -94.5 214s-148.833 73 -257.5 73h-303z" />
    <glyph glyph-name="ring" unicode="&#x44b;" horiz-adv-x="3187" 
d="M844 1331l315 0.000976562c609.333 0 914 -230.667 914 -692c0 -208.667 -86.5 -367.334 -259.5 -476.001s-391.167 -163 -654.5 -163h-889v2179h574v-848zM2916 0.000976562h-573v2179h573v-2179zM844 926.001v-549h303c106.667 0 192 23.167 256 69.5
s96 110.5 96 192.5c0 94 -31.5 165.333 -94.5 214s-148.833 73 -257.5 73h-303z" />
    <glyph glyph-name="cedilla" unicode="&#xfc;" 
d="M844 1331l344 0.000976562c608.667 0 913 -230.667 913 -692c0 -208.667 -86.5 -367.334 -259.5 -476.001s-390.833 -163 -653.5 -163h-918v2179h574v-848zM844 926.001v-549h332c105.333 0 190.333 23.167 255 69.5s97 110.5 97 192.5c0 94 -31.833 165.333 -95.5 214
s-149.167 73 -256.5 73h-332z" />
    <glyph glyph-name="cedilla" unicode="&#x44c;" 
d="M844 1331l344 0.000976562c608.667 0 913 -230.667 913 -692c0 -208.667 -86.5 -367.334 -259.5 -476.001s-390.833 -163 -653.5 -163h-918v2179h574v-848zM844 926.001v-549h332c105.333 0 190.333 23.167 255 69.5s97 110.5 97 192.5c0 94 -31.833 165.333 -95.5 214
s-149.167 73 -256.5 73h-332z" />
    <glyph glyph-name="hungarumlaut" unicode="&#xfd;" 
d="M1536 1315c-22.667 128 -69.1641 233 -139.497 315s-169.833 123 -298.5 123c-213.333 0 -340.333 -117.333 -381 -352h-582c24 304 134 519.167 330 645.5s407 189.5 633 189.5c238 0 435 -50.5 591 -151.5s270.5 -242 343.5 -423s109.5 -392.167 109.5 -633.5
c0 -127.333 -15.167 -253.5 -45.5 -378.5s-83.333 -241.167 -159 -348.5s-179.834 -193.833 -312.501 -259.5s-296 -98.5 -490 -98.5c-241.333 0 -435 50.5 -581 151.5s-249.167 216.5 -309.5 346.5s-95.5 248 -105.5 354h582c0 -42 13.333 -93.333 40 -154
s69.667 -113.667 129 -159s132.666 -68 219.999 -68c241.333 0 384.666 148.667 429.999 446h-647v459z" />
    <glyph glyph-name="hungarumlaut" unicode="&#x44d;" 
d="M1536 1315c-22.667 128 -69.1641 233 -139.497 315s-169.833 123 -298.5 123c-213.333 0 -340.333 -117.333 -381 -352h-582c24 304 134 519.167 330 645.5s407 189.5 633 189.5c238 0 435 -50.5 591 -151.5s270.5 -242 343.5 -423s109.5 -392.167 109.5 -633.5
c0 -127.333 -15.167 -253.5 -45.5 -378.5s-83.333 -241.167 -159 -348.5s-179.834 -193.833 -312.501 -259.5s-296 -98.5 -490 -98.5c-241.333 0 -435 50.5 -581 151.5s-249.167 216.5 -309.5 346.5s-95.5 248 -105.5 354h582c0 -42 13.333 -93.333 40 -154
s69.667 -113.667 129 -159s132.666 -68 219.999 -68c241.333 0 384.666 148.667 429.999 446h-647v459z" />
    <glyph glyph-name="ogonek" unicode="&#xfe;" horiz-adv-x="3412" 
d="M1237 860l-393 0.00390625v-860h-574v2179h574v-860h393c28 201.333 90.833 370.666 188.5 507.999s218.5 239.833 362.5 307.5s297.667 101.5 461 101.5c136 0 264.833 -23.167 386.5 -69.5s231 -117.333 328 -213s172.833 -215.834 227.5 -360.501
s82 -312.334 82 -503.001c0 -250 -47.167 -461.5 -141.5 -634.5s-219.5 -301.667 -375.5 -386s-325 -126.5 -507 -126.5c-163.333 0 -317 33.833 -461 101.5s-264.833 170.167 -362.5 307.5s-160.5 306.666 -188.5 507.999zM2249 1753
c-160.667 0 -275.334 -67.1689 -344.001 -201.502s-103 -288.166 -103 -461.499s34.333 -327.333 103 -462s183.334 -202 344.001 -202s275.167 67 343.5 201s102.5 288.333 102.5 463s-34.167 328.834 -102.5 462.501s-182.833 200.5 -343.5 200.5z" />
    <glyph glyph-name="ogonek" unicode="&#x44e;" horiz-adv-x="3412" 
d="M1237 860l-393 0.00390625v-860h-574v2179h574v-860h393c28 201.333 90.833 370.666 188.5 507.999s218.5 239.833 362.5 307.5s297.667 101.5 461 101.5c136 0 264.833 -23.167 386.5 -69.5s231 -117.333 328 -213s172.833 -215.834 227.5 -360.501
s82 -312.334 82 -503.001c0 -250 -47.167 -461.5 -141.5 -634.5s-219.5 -301.667 -375.5 -386s-325 -126.5 -507 -126.5c-163.333 0 -317 33.833 -461 101.5s-264.833 170.167 -362.5 307.5s-160.5 306.666 -188.5 507.999zM2249 1753
c-160.667 0 -275.334 -67.1689 -344.001 -201.502s-103 -288.166 -103 -461.499s34.333 -327.333 103 -462s183.334 -202 344.001 -202s275.167 67 343.5 201s102.5 288.333 102.5 463s-34.167 328.834 -102.5 462.501s-182.833 200.5 -343.5 200.5z" />
    <glyph glyph-name="caron" unicode="&#xff;" 
d="M86 0l598 872.001c-68 0 -145.5 26.333 -232.5 79s-161.5 129.667 -223.5 231s-93 220.666 -93 357.999c0 426 301.667 639 905 639h967v-2179h-573v872h-123l-541 -872h-684zM1434 1237v565.001h-381c-98.667 0 -179.334 -24.333 -242.001 -73
s-94 -114.334 -94 -197.001c0 -94.667 29.833 -167.5 89.5 -218.5s141.834 -76.5 246.501 -76.5h381z" />
    <glyph glyph-name="caron" unicode="&#x44f;" 
d="M86 0l598 872.001c-68 0 -145.5 26.333 -232.5 79s-161.5 129.667 -223.5 231s-93 220.666 -93 357.999c0 426 301.667 639 905 639h967v-2179h-573v872h-123l-541 -872h-684zM1434 1237v565.001h-381c-98.667 0 -179.334 -24.333 -242.001 -73
s-94 -114.334 -94 -197.001c0 -94.667 29.833 -167.5 89.5 -218.5s141.834 -76.5 246.501 -76.5h381z" />
    <glyph glyph-name="ntilde" unicode="&#x2013;" 
d="M2277 1364v-434h-2277v434h2277z" />
    <glyph glyph-name="oacute" unicode="&#x2014;" horiz-adv-x="4096" 
d="M4096 1364v-434h-4096v434h4096z" />
    <glyph glyph-name="edieresis" unicode="&#x2018;" horiz-adv-x="1139" 
d="M856 2380l0.000976562 -520h-573v417c0 389.333 187 623 561 701v-209c-122 -38.667 -201.833 -88.834 -239.5 -150.5c-37.667 -61.667 -58.834 -141.167 -63.501 -238.5h315z" />
    <glyph glyph-name="iacute" unicode="&#x2019;" horiz-adv-x="1139" 
d="M283 2421l0.000976562 520h573v-418c0 -388 -187 -621.333 -561 -700v209c122 38.667 201.667 88.667 239 150s58.666 141 63.999 239h-315z" />
    <glyph glyph-name="Ccedilla" unicode="&#x201a;" horiz-adv-x="1139" 
d="M283 0l0.000976562 520h573v-418c0 -388 -187 -621.333 -561 -700v209c122 38.667 201.667 88.667 239 150s58.666 141 63.999 239h-315z" />
    <glyph glyph-name="igrave" unicode="&#x201c;" horiz-adv-x="2048" 
d="M836 2380l0.000976562 -520h-574v417c0 388.667 187 622.334 561 701v-209c-122 -38.667 -201.833 -88.834 -239.5 -150.5c-37.667 -61.667 -58.834 -141.167 -63.501 -238.5h316zM1786 2380v-520h-574v417c0 388.667 187.333 622.334 562 701v-209
c-122 -38.667 -201.667 -88.667 -239 -150s-59 -141 -65 -239h316z" />
    <glyph glyph-name="icircumflex" unicode="&#x201d;" horiz-adv-x="2048" 
d="M262 2421v520h574v-418c0 -388 -187.333 -621.333 -562 -700v209c122 38.667 202 89 240 151s59.333 141.333 64 238h-316zM1212 2421l0.000976562 520h574v-418c0 -388 -187 -621.333 -561 -700v209c122 38.667 201.667 88.667 239 150s58.666 141 63.999 239h-316z" />
    <glyph glyph-name="Ntilde" unicode="&#x201e;" horiz-adv-x="2048" 
d="M262 0v520h574v-418c0 -388 -187.333 -621.333 -562 -700v209c122 38.667 202 89 240 151s59.333 141.333 64 238h-316zM1212 0l0.000976562 520h574v-418c0 -388 -187 -621.333 -561 -700v209c122 38.667 201.667 88.667 239 150s58.666 141 63.999 239h-316z" />
    <glyph glyph-name="Udieresis" unicode="&#x2020;" 
d="M2130 2044v-459h-717v-2285h-549v2285h-717v459h717v897h549v-897h717z" />
    <glyph glyph-name="aacute" unicode="&#x2021;" 
d="M2130 2085v-459h-721v-979h721v-459h-721v-888h-549v888h-713v459h713v979h-713v459h713v856h549v-856h721z" />
    <glyph glyph-name="idieresis" unicode="&#x2022;" horiz-adv-x="1434" 
d="M41 1475c0 123.333 30 236.332 90 338.999s142 183.667 246 243s217.333 89 340 89c121.333 0 234 -29.667 338 -89s186.333 -140.166 247 -242.499s91 -215.5 91 -339.5c0 -125.333 -30.167 -239.833 -90.5 -343.5s-142.5 -185.667 -246.5 -246s-217 -90.5 -339 -90.5
c-122.667 0 -236 29.833 -340 89.5s-186 141.5 -246 245.5s-90 219 -90 345z" />
    <glyph glyph-name="Odieresis" unicode="&#x2026;" horiz-adv-x="4096" 
d="M991 598v-598h-614v598h614zM2355 598v-598h-614v598h614zM3719 598v-598h-614v598h614z" />
    <glyph glyph-name="acircumflex" unicode="&#x2030;" horiz-adv-x="4096" 
d="M1294 610c0 117.333 29.667 226.999 89 328.999s139.5 182.667 240.5 242s211.167 89 330.5 89c116.667 0 225.834 -29.667 327.5 -89c101.667 -59.333 182.334 -139.833 242.001 -241.5s89.5 -211.5 89.5 -329.5c0 -116 -29.5 -225.167 -88.5 -327.5
s-139.167 -183.166 -240.5 -242.499s-211.333 -89 -330 -89s-228.834 29.5 -330.501 88.5s-182 139.333 -241 241s-88.5 211.5 -88.5 329.5zM1704 609.999c0 -70 24.667 -129.167 74 -177.5s108 -72.5 176 -72.5s126.667 24.167 176 72.5s74 107.5 74 177.5
c0 71.333 -24.5 130.833 -73.5 178.5s-107.833 71.5 -176.5 71.5s-127.5 -23.833 -176.5 -71.5s-73.5 -107.167 -73.5 -178.5zM2789 609.999c0 117.333 29.667 226.999 89 328.999s139.5 182.667 240.5 242s211.167 89 330.5 89c116.667 0 225.834 -29.667 327.5 -89
c101.667 -59.333 182.334 -139.833 242 -241.5c59.667 -101.667 89.5 -211.5 89.5 -329.5c0 -116 -29.5 -225.167 -88.5 -327.5s-139.167 -183.166 -240.5 -242.499s-211.333 -89 -330 -89s-228.834 29.5 -330.5 88.5c-101.667 59 -182 139.333 -241 241
s-88.5 211.5 -88.5 329.5zM3199 609.998c0 -70 24.667 -129.167 74 -177.5s108 -72.5 176 -72.5s126.667 24.167 176 72.5s74 107.5 74 177.5c0 71.333 -24.5 130.833 -73.5 178.5s-107.833 71.5 -176.5 71.5s-127.5 -23.833 -176.5 -71.5s-73.5 -107.167 -73.5 -178.5z
M-12 2249c0 116 29.5 225.167 88.5 327.5s139.167 183.166 240.5 242.5c101.333 59.333 211.333 89 330 89c118 0 227.833 -29.833 329.5 -89.5s182.167 -140.334 241.5 -242c59.333 -101.667 89 -210.834 89 -327.501c0 -117.333 -29.667 -227 -89 -329
s-139.5 -182.667 -240.5 -242s-211.167 -89 -330.5 -89c-118 0 -227.833 29.5 -329.5 88.5s-182 139.333 -241 241s-88.5 211.834 -88.5 330.501zM397 2249c0 -70 24.667 -129.167 74 -177.5s108 -72.5 176 -72.5s126.667 24.167 176 72.5s74 107.5 74 177.5
s-24.667 129.167 -74 177.5s-108 72.5 -176 72.5s-126.667 -24.167 -176 -72.5s-74 -107.5 -74 -177.5zM328 -78.002l1630 2986h303l-1630 -2986h-303z" />
    <glyph glyph-name="atilde" unicode="&#x2039;" horiz-adv-x="1364" 
d="M1024 1982v-475l-410 -360l410 -361v-475l-684 590v492z" />
    <glyph glyph-name="otilde" unicode="&#x203a;" horiz-adv-x="1364" 
d="M750 1147l-410 360v475l684 -589v-492l-684 -590v475z" />
    <glyph glyph-name="ocircumflex" unicode="&#x2122;" horiz-adv-x="4096" 
d="M2523 2941l385 -1024l381 1024h627v-1688h-434v1151h-9l-401 -1151h-332l-401 1151h-8v-1151h-435v1688h627zM1577 2941v-348h-471v-1340h-459v1340h-467v348h1397z" />
    <glyph glyph-name=".null" horiz-adv-x="0" 
 />
    <glyph glyph-name="nonmarkingreturn" horiz-adv-x="0" 
 />
    </font>
</defs>
</svg>
